<?xml version="1.0" encoding="UTF-8"?>
<!DOCTYPE svg PUBLIC "-//W3C//DTD SVG 1.1//EN" "http://www.w3.org/Graphics/SVG/1.1/DTD/svg11.dtd">
<svg version="1.1" xmlns="http://www.w3.org/2000/svg" xmlns:xlink="http://www.w3.org/1999/xlink" x="0" y="0" width="476" height="536" viewBox="0, 0, 476, 536">
  <g id="Layer_1">
    <path d="M281.911,98.049 C283.151,101.989 289.901,121.309 304.72,128.729 C306.38,126.999 309.231,126.069 312.831,126.069 C313.821,126.069 314.871,126.149 315.97,126.289 C325.071,127.479 335.38,133.329 337.491,142.199 L337.581,142.559 L337.5,142.919 C335.161,153.569 329.601,161.559 324.691,168.609 C320.201,175.059 316.291,180.689 316.441,186.439 C317.59,186.229 320.13,185.349 324.491,182.619 C338.101,174.119 365.491,149.719 371.72,118.309 C374.071,106.449 360.281,90.299 340.97,82.299 C317.441,72.549 295.42,78.439 281.911,98.049" fill="#EB8D30"/>
    <path d="M292.371,123.249 C295.96,130.679 299.22,138.259 302.18,145.959 C306.781,158.049 310.521,170.449 313.481,183.039 C314.491,177.609 318.041,172.479 322.021,166.759 C326.531,160.279 331.611,152.959 333.981,143.629 C333.491,142.029 332.981,140.429 332.46,138.839 C328.96,133.739 321.791,130.329 315.55,129.509 C311.111,128.929 307.63,129.719 306.651,131.529 L305.941,132.849 L304.561,132.239 C299.75,130.099 295.72,126.879 292.371,123.249" fill="#EB8D30"/>
    <path d="M238.111,22.069 C237.491,21.949 236.88,21.829 236.261,21.719 L236.951,21.959 L245.71,25.329 L254.361,28.949 C265.831,33.949 277.01,39.669 287.701,46.249 C298.371,52.849 308.51,60.349 317.871,68.779 C319.981,70.679 322.05,72.639 324.071,74.639 C329.951,75.199 336.031,76.739 342.21,79.299 C344.521,80.259 346.741,81.329 348.88,82.499 C334.791,66.909 318.05,53.679 299.51,43.639 C297.101,42.319 294.651,41.069 292.191,39.859 C289.757,38.804 287.307,37.787 284.848,36.793 C284.41,36.687 283.972,36.583 283.533,36.476 L283.584,36.279 C274.399,32.611 265.048,29.369 255.55,26.599 C249.781,24.919 243.96,23.409 238.111,22.069" fill="#EB8D30"/>
    <path d="M229.321,20.529 C241.34,24.559 252.911,30.019 263.621,36.899 C275.541,44.599 286.321,54.049 295.731,64.669 C299.09,68.449 302.259,72.379 305.271,76.429 C309.68,75.089 314.321,74.399 319.13,74.399 C309.191,64.609 298.161,55.879 286.43,48.249 C276.041,41.429 265.101,35.429 253.831,30.119 L245.321,26.259 L236.691,22.639 L232.771,21.099 C231.621,20.899 230.47,20.709 229.321,20.529" fill="#EB8D30"/>
    <path d="M187.46,15.099 C192.5,17.039 197.38,19.378 202.13,21.959 C206.871,24.549 211.48,27.389 215.92,30.479 C220.371,33.549 224.701,36.809 228.861,40.269 C245.51,54.119 259.96,70.539 272.191,88.409 C274.401,91.619 276.51,94.889 278.561,98.199 L278.371,97.499 L278.781,96.878 C284.991,87.599 292.941,81.109 302.01,77.559 C299.291,73.829 296.441,70.189 293.43,66.679 C284.351,56.099 273.89,46.679 262.311,38.889 C250.76,31.029 238.07,24.849 224.781,20.399 C222.15,19.519 219.5,18.729 216.831,17.979 C214.491,17.609 212.14,17.269 209.791,16.949 C202.09,15.929 194.34,15.219 186.581,14.789 C186.871,14.899 187.17,14.989 187.46,15.099" fill="#EB8D30"/>
    <path d="M378.121,93.389 C370.531,87.029 362.68,80.989 354.621,75.269 C355.691,76.209 356.771,77.149 357.831,78.109 C367.871,87.149 377.111,97.119 385.271,107.939 C393.38,118.789 400.42,130.459 406.17,142.739 C411.92,155.029 416.311,167.939 419.39,181.159 C422.43,194.399 423.901,207.949 424.26,221.489 L424.311,226.569 C424.311,228.269 424.401,229.968 424.271,231.659 L423.771,241.798 C423.731,243.499 423.481,245.179 423.321,246.859 L422.22,256.959 L421.491,261.949 C419.541,275.269 417.201,288.548 414.031,301.659 C410.88,314.769 407.041,327.739 402.25,340.379 C397.46,353.019 391.561,365.259 384.531,376.819 C382.84,379.749 380.901,382.529 379.05,385.359 C378.151,386.789 377.101,388.119 376.13,389.509 C375.13,390.869 374.18,392.269 373.13,393.599 C371.021,396.239 369.021,398.959 366.771,401.499 L363.47,405.339 L360.021,409.059 L358.3,410.909 L352.93,416.279 L349.22,419.729 C347.991,420.879 346.76,422.029 345.47,423.119 L341.651,426.429 C340.38,427.529 339.05,428.569 337.75,429.639 C335.161,431.789 332.47,433.819 329.791,435.849 C319.021,443.929 307.68,451.169 296.17,458.069 C290.42,461.519 284.59,464.849 278.741,468.119 C272.871,471.369 266.97,474.549 261.05,477.699 C264.51,475.679 267.97,473.649 271.42,471.609 L270.59,470.209 C267.75,471.849 264.981,473.579 262.09,475.119 L257.8,477.489 L253.451,479.749 C248.84,482.119 244.151,484.309 239.43,486.419 L239.351,486.469 L239.181,486.619 C268.451,478.629 297.021,467.829 323.17,452.659 C350.371,436.929 374.821,416.349 393.531,391.279 C412.321,366.269 425.14,337.119 432.13,306.709 C435.691,291.489 437.76,275.979 439.14,260.329 L440.18,248.509 L440.481,245.529 C440.571,244.589 440.661,243.638 440.72,242.689 C440.871,240.779 440.951,238.849 441,236.929 C441.191,229.209 440.84,221.429 440.071,213.709 C438.531,198.259 435.26,182.978 430.271,168.308 C425.291,153.649 418.5,139.619 409.831,126.859 L406.491,122.139 L402.991,117.539 L399.3,113.089 C398.061,111.649 396.791,110.279 395.531,108.869 C394.941,108.139 394.191,107.529 393.491,106.869 L391.361,104.929 C389.97,103.629 388.491,102.329 387.021,101.039 C385.571,99.729 384.09,98.439 382.601,97.179 C381.111,95.909 379.64,94.619 378.121,93.389" fill="#EB8D30"/>
    <path d="M328.34,433.969 C349.38,417.569 367.911,397.869 381.281,374.869 C388.01,363.429 393.63,351.339 398.26,338.879 C402.88,326.409 406.55,313.589 409.55,300.609 C412.561,287.63 414.901,274.489 416.781,261.269 L417.491,256.32 L418.021,251.369 L418.541,246.42 C418.701,244.769 418.93,243.13 418.97,241.469 L419.43,231.529 C419.55,229.88 419.46,228.219 419.46,226.57 L419.39,221.598 C419.061,208.359 417.68,195.13 414.741,182.21 C411.791,169.309 407.5,156.719 401.981,144.69 C396.481,132.65 389.701,121.178 381.84,110.489 C373.93,99.848 364.991,89.96 355.26,80.908 C347.96,74.149 340.22,67.868 332.111,62.069 C332.581,62.448 333.061,62.819 333.531,63.198 C343.401,71.269 352.371,80.448 360.39,90.38 C367.46,96.42 372.491,103.428 374.38,110.11 C377.291,114.819 380.021,119.65 382.521,124.598 C388.451,136.38 393.32,148.739 396.541,161.618 C398.13,168.049 399.311,174.549 400.25,181.07 C401.18,187.598 401.851,194.158 402.291,200.729 C403.17,213.859 403.161,227.039 402.38,240.17 C401.581,253.299 399.981,266.38 397.601,279.319 C395.25,292.259 392.101,305.049 388.191,317.609 C380.26,342.679 369.25,366.849 354.84,388.859 C340.5,410.909 322.871,430.799 302.64,447.519 C292.521,455.859 281.771,463.409 270.59,470.209 L271.42,471.609 C291.061,460.029 310.491,448.049 328.34,433.969" fill="#EB8D30"/>
    <path d="M253.101,479.099 L257.371,476.719 L261.58,474.239 C264.411,472.62 267.13,470.809 269.901,469.109 C280.84,462.029 291.3,454.229 301.09,445.679 C306.01,441.429 310.741,436.969 315.34,432.399 C319.88,427.759 324.34,423.029 328.541,418.079 C336.97,408.219 344.731,397.779 351.63,386.799 C365.441,364.859 376.21,341.029 383.771,316.239 C391.371,291.46 395.97,265.75 397.521,239.88 C398.33,226.939 398.38,213.959 397.55,201.039 C396.72,188.119 395.01,175.25 392.09,162.699 C389.09,150.209 384.441,138.069 378.731,126.489 C377.491,124.009 376.201,121.559 374.861,119.13 C373.281,127.019 370.401,134.509 366.75,141.459 C369.561,149.328 371.861,157.38 373.731,165.519 L374.75,170.139 C375.08,171.679 375.451,173.219 375.661,174.779 L377.151,184.119 C377.43,185.679 377.541,187.25 377.72,188.82 L378.22,193.519 L378.71,198.219 C378.84,199.789 378.89,201.359 378.991,202.929 L379.5,212.359 L379.55,221.799 L379.571,226.519 L379.38,231.24 L378.991,240.66 C378.791,243.799 378.46,246.92 378.201,250.059 L377.791,254.75 L377.58,257.099 L377.281,259.429 L376.061,268.769 L375.441,273.439 L374.651,278.079 C373.59,284.269 372.63,290.469 371.25,296.589 L369.33,305.799 C369.031,307.339 368.64,308.87 368.25,310.399 L367.09,314.969 C363.89,327.149 359.89,339.12 355.061,350.739 C350.18,362.339 344.491,373.589 338.09,384.409 C325.321,406.059 309.661,425.929 292.041,443.739 C283.22,452.639 273.84,460.969 264.08,468.799 C256.58,474.749 248.851,480.439 240.781,485.579 C244.93,483.509 249.061,481.379 253.101,479.099" fill="#EB8D30"/>
    <path d="M241.021,484.999 C243.59,483.199 246.13,481.339 248.64,479.449 C253.63,475.709 258.5,471.819 263.26,467.799 C272.75,459.719 281.831,451.169 290.321,442.079 C307.411,423.999 322.481,404.029 334.8,382.489 C340.941,371.719 346.39,360.559 351.111,349.109 C355.771,337.629 359.59,325.829 362.621,313.829 C368.401,289.729 372.571,265.099 374.13,240.359 L374.541,231.068 L374.741,226.429 L374.71,212.499 L374.241,203.228 C374.151,201.679 374.111,200.129 373.981,198.589 L373.041,189.369 C372.871,187.829 372.771,186.279 372.491,184.759 L371.061,175.599 C370.861,174.068 370.51,172.568 370.201,171.048 L369.241,166.519 C367.76,159.798 365.97,153.129 363.851,146.579 C358.46,155.52 351.89,163.429 345.321,169.939 C346.01,173.218 346.661,176.499 347.26,179.798 C349.771,193.749 351.331,207.859 352.021,222.019 C352.71,236.169 352.55,250.388 351.121,264.54 C349.67,278.669 347.111,292.649 343.75,306.419 C340.371,320.178 336.21,333.729 331.3,347.009 C326.39,360.289 320.76,373.299 314.451,385.959 C308.17,398.629 301.161,410.949 293.46,422.819 C285.76,434.679 277.38,446.109 268.26,456.919 C259.831,466.879 250.791,476.339 241.021,484.999" fill="#EB8D30"/>
    <path d="M290.3,420.799 C305.072,397.029 317.5,371.769 326.97,345.419 C336.47,319.13 343.451,291.82 346.271,264.06 C347.71,250.199 347.911,236.199 347.271,222.238 C346.651,208.279 345.081,194.369 342.731,180.598 C342.331,178.269 341.89,175.949 341.441,173.63 C332.46,181.839 323.96,187.29 319.081,189.06 C317.84,189.508 316.8,189.73 315.941,189.73 C315.572,189.73 315.241,189.678 314.93,189.598 C316.281,195.98 317.46,202.388 318.401,208.829 C321.51,230.299 322.21,252.079 320.981,273.699 C320.351,284.508 319.09,295.279 317.481,305.979 C317.041,308.638 316.68,311.329 316.18,313.979 L314.691,321.96 C314.161,324.61 313.55,327.25 312.981,329.888 L312.101,333.849 L311.13,337.779 C306.072,358.809 299.061,379.309 290.901,399.269 C286.64,409.179 282.281,419.039 277.42,428.659 C275.081,433.509 272.531,438.259 270.031,443.019 C268.791,445.409 267.441,447.739 266.13,450.089 L262.17,457.129 L263.281,458.07 C273.17,446.32 282.14,433.789 290.3,420.799" fill="#EB8D30"/>
    <path d="M270.14,121.849 C291.21,163.589 301.321,212.379 300.21,266.839 C299.912,281.789 298.742,297.079 296.731,312.659 L296.72,312.709 L296.72,312.758 C295.14,324.989 293.021,337.429 290.401,350.029 C290.371,350.259 290.331,350.479 290.271,350.679 L290.26,350.679 C287.901,361.939 285.14,373.329 281.952,384.869 C281.992,385.109 282.031,385.349 282.041,385.549 L281.75,385.569 C278.43,397.539 274.651,409.649 270.441,421.889 C270.621,422.369 270.031,423.099 270.031,423.099 C264.662,438.599 258.581,454.309 251.8,470.219 L251.63,470.509 C251.5,470.699 250.861,471.609 249.821,472.999 C254.492,468.189 258.981,463.199 263.281,458.069 L262.17,457.129 C267.031,447.529 271.84,437.899 276.25,428.099 C280.771,418.349 284.781,408.379 288.68,398.379 C296.271,378.309 302.731,357.809 307.43,336.909 C316.912,295.189 319.75,251.829 313.581,209.529 C310.571,188.388 305.321,167.579 297.871,147.579 C290.47,127.559 280.811,108.359 269.041,90.529 C257.26,72.719 243.412,56.189 227.322,42.079 C223.33,38.519 219.162,35.149 214.861,31.969 C210.572,28.769 206.111,25.799 201.492,23.079 C196.88,20.359 192.121,17.889 187.181,15.779 C186.301,15.399 185.4,15.049 184.5,14.689 C181.261,14.539 178.011,14.409 174.742,14.339 L168.822,14.209 L165.801,14.119 C164.85,14.079 163.92,14.039 162.841,13.919 C162.162,13.939 161.291,14.009 160.48,14.079 C159.65,14.169 158.822,14.269 157.98,14.378 C156.281,15.589 154.621,17.159 152.992,18.989 C200.011,31.099 243.662,69.349 270.14,121.849" fill="#EB8D30"/>
    <path d="M17.301,232.869 C6.201,193.759 15.341,146.209 41.751,105.669 C66.591,67.539 102.561,41.699 138.151,36.319 C142.121,28.459 146.871,20.669 152.081,15.329 C148.47,15.999 144.861,16.819 141.291,17.739 C134.031,19.639 126.871,21.989 119.901,24.779 C105.951,30.349 92.651,37.639 80.791,46.829 C74.851,51.399 69.301,56.469 63.991,61.869 C58.691,67.249 53.651,72.899 48.931,78.809 C39.461,90.599 31.151,103.349 24.521,116.949 C17.881,130.529 12.971,144.969 10.251,159.849 C7.481,174.718 7.091,190.029 8.981,205.089 C10.671,218.259 14.031,231.239 18.861,243.679 C18.161,240.189 17.641,236.579 17.301,232.869" fill="#E05531"/>
    <path d="M44.471,107.439 C22.311,141.459 12.54,180.449 16.971,214.929 C17.611,202.489 19.98,189.239 24.151,175.529 C32.191,149.139 46.221,123.739 63.671,104.019 C82.531,82.699 104.221,69.099 126.441,64.649 C127.511,61.459 131.131,50.959 136.401,39.889 C102.441,45.849 68.291,70.879 44.471,107.439" fill="#E05531"/>
    <path d="M267.241,123.309 C240.901,71.089 197.39,33.209 150.72,21.759 C147.46,26.019 144.401,31.219 141.671,36.549 C178.921,43.699 215.72,70.199 240.441,107.809 C262.071,140.709 284.941,197.939 271.71,284.079 C275.581,286.979 279.291,290.029 282.401,292.819 C286.63,296.619 291.271,301.25 294.111,305.439 C301.929,236.609 293.061,174.469 267.241,123.309" fill="#E05531"/>
    <path d="M129.931,64.499 C153.97,65.779 193.161,86.499 221.031,123.849 C236.25,144.239 246.411,167.019 251.231,191.569 C256.241,217.099 255.291,244.029 248.451,271.759 C253.111,271.969 261.01,276.429 268.741,281.92 C281.271,197.729 258.901,141.809 237.73,109.599 C213.281,72.399 176.871,46.299 140.171,39.569 C135.121,49.949 131.401,60.239 129.931,64.499" fill="#E05531"/>
    <path d="M293.42,311.149 C292.71,308.369 288.621,302.779 280.231,295.239 C267.821,284.079 252.481,274.499 247.96,274.979 C247.861,275.809 247.741,276.63 247.601,277.439 C247.411,278.429 247.14,279.389 246.911,280.369 L246.55,281.839 L246.09,283.239 C246.049,283.364 246.01,283.489 245.969,283.614 C249.977,285.402 253.758,287.574 257.286,290.051 C261.426,292.965 265.245,296.271 268.707,299.89 C272.162,303.513 275.277,307.452 277.85,311.718 C280.394,315.975 282.479,320.611 283.171,325.498 C282.008,320.703 279.537,316.407 276.668,312.508 C273.773,308.611 270.394,305.099 266.745,301.946 C263.089,298.797 259.148,296.007 255.001,293.651 C251.5,291.664 247.843,289.99 244.093,288.726 L244.061,288.809 C242.451,292.449 240.47,295.989 237.871,299.149 C237.771,299.259 237.67,299.38 237.57,299.489 C260.611,311.079 281.611,331.449 288.241,343.339 C290.361,332.469 292.081,321.729 293.42,311.149" fill="#E05531"/>
    <path d="M287.17,348.719 C286.05,341.899 264.731,316.428 235.25,301.969 C233.21,303.928 230.89,305.63 228.34,306.888 C227.59,307.259 226.831,307.589 226.06,307.899 C226.74,309.392 227.288,311.135 227.716,313.066 C232.591,315.073 237.098,317.667 241.331,320.576 C245.77,323.641 249.912,327.069 253.748,330.791 C257.574,334.516 261.116,338.535 264.145,342.918 C264.861,344.045 265.631,345.128 266.295,346.282 L267.269,348.023 L267.753,348.892 L268.993,351.615 C269.256,352.221 269.433,352.868 269.657,353.491 C270.153,354.721 270.31,356.056 270.59,357.335 C270.193,356.074 269.925,354.79 269.324,353.616 C269.048,353.021 268.822,352.41 268.508,351.837 L267.058,349.286 L265.403,346.865 C264.656,345.799 263.802,344.804 263.012,343.776 C259.677,339.775 255.881,336.18 251.857,332.913 C247.825,329.65 243.542,326.717 239.072,324.191 C235.699,322.293 232.209,320.617 228.64,319.301 C228.98,323.215 228.982,327.563 228.67,332.109 C251.63,341.24 273.13,366.859 279.861,379.629 C282.63,369.219 285.071,358.909 287.17,348.719" fill="#E05531"/>
    <path d="M278.55,384.499 C276.05,376.339 253.691,346.059 228.38,335.509 C227.996,339.376 227.387,343.324 226.596,347.217 C230.33,348.942 233.863,351.005 237.173,353.33 C241.313,356.244 245.131,359.549 248.593,363.169 C252.048,366.792 255.163,370.73 257.738,374.997 C260.281,379.254 262.366,383.89 263.057,388.777 C261.895,383.982 259.423,379.686 256.555,375.787 C253.659,371.89 250.279,368.378 246.63,365.225 C242.976,362.076 239.035,359.286 234.888,356.929 C231.83,355.194 228.652,353.696 225.4,352.502 C224.648,355.474 223.793,358.377 222.83,361.129 C247.081,372.389 262.911,404.249 268.531,417.249 C272.231,406.229 275.572,395.309 278.55,384.499" fill="#E05531"/>
    <path d="M252.831,459.309 C257.991,446.729 262.691,434.259 266.941,421.909 C263.25,412.869 246.96,376.119 221.691,364.179 C219.791,368.979 217.571,373.199 215.071,376.429 C214.8,376.923 214.496,377.426 214.193,377.928 C219.128,380.25 223.408,383.433 227.269,386.918 C231.706,390.947 235.638,395.403 239.219,400.089 C242.79,404.784 246.012,409.719 248.792,414.888 C249.451,416.201 250.16,417.483 250.774,418.815 C251.356,420.165 252.032,421.463 252.531,422.844 C253.056,424.214 253.602,425.57 253.98,426.989 C254.458,428.372 254.682,429.828 254.96,431.253 C254.565,429.846 254.23,428.438 253.643,427.103 C253.159,425.737 252.507,424.438 251.881,423.133 C251.283,421.818 250.506,420.584 249.83,419.309 C249.12,418.05 248.316,416.841 247.566,415.609 C244.423,410.755 240.871,406.179 237.03,401.901 C233.181,397.632 229.031,393.649 224.542,390.196 C220.336,386.962 215.746,384.228 210.982,382.622 C210.412,383.367 209.816,384.113 209.191,384.859 C220.591,394.559 250.26,433.969 252.831,459.309" fill="#E05531"/>
    <path d="M234.781,423.089 C225.05,406.889 213.261,392.479 207.05,387.289 C205.13,389.359 201.14,393.439 201.14,393.439 C200.384,397.147 199.544,400.677 198.638,404.058 C200.911,405.191 202.794,406.604 204.636,408.042 C207.126,410.037 209.402,412.19 211.572,414.422 C215.897,418.896 219.804,423.681 223.416,428.667 C226.997,433.671 230.302,438.868 233.107,444.331 C235.865,449.79 238.304,455.531 239.181,461.586 C237.837,455.626 234.996,450.183 231.868,445.028 C228.697,439.877 225.054,435.031 221.175,430.417 C217.272,425.822 213.095,421.46 208.628,417.506 C206.392,415.538 204.077,413.672 201.677,412.039 C200.198,411.034 198.634,410.085 197.115,409.379 C195.802,413.688 194.375,417.73 192.841,421.499 C223.401,445.699 234.931,469.919 227.151,493.589 C237.421,484.619 247.531,470.659 248.831,468.849 C252.021,459.719 247.05,443.489 234.781,423.089" fill="#E05531"/>
    <path d="M191.521,424.599 C190.363,427.231 189.15,429.72 187.894,432.089 C188.398,432.328 188.89,432.579 189.342,432.874 C190.693,433.575 191.816,434.498 192.996,435.356 C193.591,435.779 194.083,436.297 194.628,436.762 C195.154,437.248 195.711,437.703 196.203,438.212 C197.156,439.256 198.189,440.229 199.06,441.325 C202.674,445.608 205.603,450.325 208.025,455.245 C210.455,460.162 212.324,465.32 213.638,470.591 C214.96,475.861 215.747,481.239 215.96,486.62 C215.273,481.274 214.025,476.04 212.277,471.001 C210.538,465.96 208.279,461.115 205.529,456.602 C202.792,452.089 199.601,447.862 195.933,444.221 C195.042,443.282 194.029,442.496 193.092,441.627 C192.611,441.207 192.085,440.858 191.587,440.47 C191.076,440.109 190.599,439.678 190.062,439.373 C188.476,438.333 186.82,437.486 185.172,436.898 C183.691,439.357 182.158,441.666 180.581,443.819 C195.09,457.349 210.931,489.559 199.17,511.319 C207.351,507.019 217.72,499.939 222.63,496.389 C232.48,473.109 222.021,448.969 191.521,424.599" fill="#E05531"/>
    <path d="M178.611,446.409 C176.73,448.778 174.791,450.937 172.812,452.93 C179.662,459.827 184.472,468.362 187.263,477.343 C188.818,482.358 189.73,487.552 189.91,492.757 C190.039,497.936 189.44,503.263 187.21,507.919 C188.996,503.08 189.075,497.87 188.493,492.865 C187.852,487.844 186.509,482.935 184.587,478.3 C181.087,469.852 175.69,462.258 168.852,456.641 C166.276,458.883 163.651,460.867 161.001,462.589 C169.981,472.279 186.251,495.849 165.411,523.369 C178.701,521.079 192.731,513.329 194.97,512.049 C207.431,493.379 194.141,460.899 178.611,446.409" fill="#E05531"/>
    <path d="M58.041,364.349 C58.041,364.349 57.653,361.131 57.316,357.394 C55.979,358.617 54.733,360.126 53.607,361.689 C51.956,363.986 50.535,366.5 49.229,369.071 C47.933,371.65 46.772,374.314 45.798,377.051 L45.114,379.12 C44.923,379.817 44.711,380.514 44.536,381.218 C44.221,382.632 43.901,384.064 43.96,385.533 C43.733,384.078 43.888,382.591 44.044,381.128 C44.141,380.397 44.273,379.672 44.387,378.941 L44.837,376.773 C45.504,373.895 46.371,371.063 47.394,368.276 C48.429,365.493 49.59,362.74 51.067,360.092 C52.569,357.462 54.234,354.844 56.889,352.659 L56.961,352.763 C56.854,350.952 56.799,349.275 56.851,348.049 L56.84,348.029 L56.851,348.029 C56.92,346.269 57.101,344.639 57.38,343.129 C52.23,347.279 44.021,355.479 40.65,367.769 C37.641,378.769 39.041,390.819 44.8,403.689 C45.13,400.799 45.621,397.849 46.28,394.839 C50.03,377.749 57.71,364.889 58.041,364.349" fill="#E05531"/>
    <path d="M66.558,389.125 C65.397,390.629 64.369,392.402 63.456,394.183 C62.043,396.946 60.886,399.886 59.851,402.867 C58.824,405.854 57.931,408.9 57.218,411.993 L56.729,414.322 L56.333,416.67 C56.156,418.24 55.925,419.83 56.127,421.419 C55.759,419.854 55.822,418.229 55.835,416.626 L55.985,414.22 L56.231,411.822 C56.625,408.631 57.203,405.461 57.929,402.314 C58.665,399.17 59.529,396.042 60.71,392.973 C61.309,391.44 61.953,389.913 62.761,388.419 C63.112,387.657 63.639,386.94 64.093,386.2 C64.296,385.843 64.58,385.509 64.863,385.174 C63.376,381.542 62.005,377.709 60.821,373.749 C60.641,373.139 60.48,372.539 60.311,371.949 C60.161,371.689 60.041,371.429 59.931,371.139 C53.971,383.129 39.67,417.839 59.13,442.949 C60.161,421.459 69.48,400.739 70.92,397.649 C69.409,395.048 67.943,392.179 66.558,389.125" fill="#E05531"/>
    <path d="M76.861,432.169 C75.341,423.139 77.501,415.949 82.961,411.419 C82.081,410.949 81.151,410.319 80.181,409.509 C79.92,409.292 79.659,409.061 79.397,408.82 C78.397,409.821 77.492,411.339 76.771,412.909 C75.952,414.662 75.276,416.538 74.68,418.447 C73.491,422.274 72.627,426.249 71.939,430.252 C71.256,434.258 70.774,438.31 70.505,442.38 C70.377,444.415 70.309,446.455 70.339,448.495 C70.372,450.534 70.499,452.579 70.921,454.586 C70.337,452.619 70.04,450.569 69.84,448.522 C69.642,446.474 69.544,444.417 69.505,442.357 C69.442,438.239 69.594,434.114 69.956,429.997 C70.323,425.881 70.867,421.768 71.781,417.675 C72.241,415.63 72.789,413.589 73.542,411.558 C74.265,409.669 75.09,407.752 76.674,405.95 C75.808,404.927 74.942,403.806 74.081,402.589 C70.251,411.719 60.191,438.709 65.361,459.919 C67.051,466.859 72.241,475.169 80.801,484.669 C78.011,469.989 83.441,455.609 84.941,452.019 C80.871,445.559 77.921,438.499 76.861,432.169" fill="#E05531"/>
    <path d="M95.471,501.579 C97.101,503.059 98.721,504.489 100.201,505.779 C97.021,491.029 101.311,475.979 103.161,470.519 C100.99,469.311 98.853,467.772 96.785,466.001 C95.268,469.631 94.153,473.507 93.345,477.449 C92.848,479.938 92.476,482.463 92.254,485.006 C92.038,487.548 91.949,490.114 92.269,492.669 C91.62,490.173 91.37,487.572 91.254,484.985 C91.144,482.392 91.187,479.788 91.363,477.184 C91.705,472.529 92.435,467.861 93.843,463.273 C91.903,461.329 90.05,459.194 88.331,456.919 C85.391,465.6 80.051,487.619 95.471,501.579" fill="#E05531"/>
    <path d="M160.621,521.589 C180.861,496.149 165.98,474.679 156.73,465.149 C154.242,466.517 151.745,467.689 149.261,468.689 C150.552,472.105 151.562,475.586 152.341,479.106 C153.23,483.165 153.802,487.282 154.028,491.415 C154.245,495.545 154.116,499.706 153.4,503.774 C152.679,507.823 151.349,511.839 148.96,515.169 C151.066,511.654 152.029,507.634 152.41,503.639 C152.781,499.627 152.574,495.584 152.037,491.604 C151.49,487.623 150.612,483.691 149.437,479.864 C148.396,476.481 147.126,473.176 145.621,470.025 C142.743,471.003 139.898,471.773 137.13,472.349 C145.25,488.979 143.47,514.009 133.741,526.149 C141.15,526.809 157.65,525.319 160.621,521.589" fill="#E05531"/>
    <path d="M132.111,473.219 C128.491,473.727 125.055,473.936 121.871,473.966 C121.779,474.204 121.694,474.446 121.635,474.71 C121.415,475.584 121.113,476.423 120.968,477.345 C120.581,479.144 120.33,481.004 120.11,482.872 C119.687,486.619 119.557,490.432 119.5,494.246 C119.456,498.061 119.528,501.89 119.717,505.715 C119.918,509.539 120.143,513.371 120.693,517.169 C119.815,513.427 119.256,509.616 118.721,505.806 C118.198,501.993 117.792,498.161 117.501,494.309 C117.224,490.457 117.018,486.589 117.116,482.678 C117.175,480.722 117.267,478.758 117.516,476.772 C117.583,475.831 117.811,474.872 117.978,473.916 C115.688,473.832 113.569,473.665 111.691,473.449 C110.341,473.289 108.981,472.969 107.621,472.509 C104.881,480.729 97.231,509.329 117.391,524.789 L127.801,525.359 C137.71,516.679 141.46,490.399 132.111,473.219" fill="#E05531"/>
    <path d="M156.991,248.199 C152.401,248.888 148.181,252.789 144.97,256.749 C144.5,257.699 144.041,258.649 143.591,259.609 C142.291,262.409 141.091,265.269 139.941,268.149 C163.361,274.859 182.041,265.339 190.31,252.659 C195.81,244.229 196.71,235.069 193.05,227.579 C181.72,240.789 165.021,246.968 156.991,248.199" fill="#F5EA3F"/>
    <path d="M50.511,234.259 L49.481,234.729 C48.241,240.499 46.841,263.229 56.241,270.649 C60.561,274.059 66.841,273.859 74.891,270.039 L76.991,263.699 C77.711,261.509 78.421,259.319 79.101,257.119 C79.101,256.579 79.041,256.119 78.911,255.749 C75.321,245.798 63.171,262.329 50.511,234.259" fill="#F5EA3F"/>
    <path d="M81.67,431.359 C84.42,447.759 100.43,467.249 112.25,468.609 C136.65,471.399 179.271,465.679 195.191,397.779 C194.89,397.999 194.59,398.219 194.291,398.439 C189.92,401.519 183.361,405.449 175.271,408.269 C143.611,427.759 104.98,411.199 87.9,413.899 C81.061,417.969 80.69,425.549 81.67,431.359" fill="#F1AA49"/>
    <path d="M59.44,335.729 L60.771,335.489 C62.53,335.659 64.45,335.919 66.47,336.189 L66.47,336.179 C65.771,335.419 65.17,334.539 64.67,333.609 C64.18,332.659 63.82,331.659 63.51,330.649 C62.92,328.599 62.66,326.479 62.53,324.359 C62.351,320.13 62.751,315.909 63.39,311.759 C63.751,309.299 64.24,306.859 64.771,304.439 C65.251,297.389 64.371,289.559 58.05,285.529 C53.94,282.899 51.3,279.38 49.61,275.509 C44.94,290.409 38.42,314.009 49.28,343.839 C54.46,338.599 59.07,335.939 59.44,335.729" fill="#F1AA49"/>
    <path d="M193.031,254.429 C186.121,265.039 172.531,273.629 155.13,273.629 C149.981,273.629 144.501,272.859 138.751,271.189 C137.451,274.669 136.251,278.189 135.191,281.749 C132.961,289.339 131.291,297.109 130.691,305.008 C130.411,308.959 130.421,312.939 130.911,316.869 C131.401,320.789 132.381,324.699 134.151,328.279 C135.351,328.859 136.021,329.659 136.251,330.619 C176.701,322.479 197.231,334.149 206.111,342.269 C215.161,350.539 218.571,360.499 218.101,367.329 L219.46,363.539 C221.161,327.039 171.31,301.559 145.751,292.968 L160.491,288.609 C160.491,288.609 161.88,289.629 164.291,291.218 C170.761,294.008 177.181,296.869 183.731,299.298 C187.271,300.638 190.831,301.888 194.431,302.928 C198.031,303.959 201.661,304.848 205.311,305.369 C208.96,305.888 212.63,306.079 216.191,305.749 C219.751,305.409 223.181,304.439 226.241,302.798 C229.291,301.159 231.991,298.899 234.191,296.138 C236.401,293.388 238.151,290.218 239.581,286.888 C241.041,283.559 242.151,279.999 242.92,276.539 C243.601,273.039 243.701,269.468 243.22,265.999 C242.75,262.519 241.581,259.138 239.831,256.039 C238.05,252.959 235.761,250.119 233.151,247.558 C230.541,244.999 227.601,242.739 224.511,240.669 C221.421,238.589 218.14,236.749 214.771,235.089 C211.411,233.398 207.921,231.929 204.39,230.558 C202.63,229.869 200.841,229.239 199.041,228.629 C198.291,228.369 197.541,228.129 196.791,227.888 L196.671,227.849 C199.88,236.019 198.701,245.739 193.031,254.429" fill="#F1AA49"/>
    <path d="M162.42,215.548 C182.951,211.789 179.68,219.739 199.72,217.569 C198.42,220.189 196.9,222.609 195.23,224.849 C195.59,225.489 195.92,226.149 196.22,226.819 C196.42,226.798 196.621,226.769 196.82,226.729 C196.97,226.718 197.111,226.699 197.26,226.67 C198.88,226.379 200.46,225.869 201.98,225.239 C205.021,224 207.831,222.218 210.3,220.149 C212.781,218.069 214.861,215.569 216.25,212.819 C216.951,211.449 217.451,210.009 217.71,208.539 L217.871,207.439 L217.99,206.209 C218.05,205.399 218.111,204.589 218.14,203.779 C218.291,200.569 218.111,197.379 217.14,194.589 C216.65,193.189 215.99,191.899 215.111,190.779 C214.24,189.659 213.17,188.689 211.97,187.849 C209.55,186.179 206.56,185.17 203.47,184.509 C200.38,183.839 197.121,183.599 193.861,183.449 C187.331,183.189 180.8,183.809 174.76,185.839 C171.76,186.869 168.89,188.289 166.26,190.069 C163.66,191.899 161.25,194.019 159.13,196.459 C154.88,201.339 151.65,207.199 149.101,213.349 C147.791,216.42 146.691,219.579 145.63,222.769 C144.611,225.968 143.66,229.209 142.771,232.479 C145.781,223 150.701,217.699 162.42,215.548" fill="#F1AA49"/>
    <path d="M245.661,214.099 C244.041,207.968 242.151,201.909 239.92,195.989 C237.681,190.069 235.13,184.259 232.261,178.629 C226.48,167.388 219.581,156.729 211.431,147.089 C203.331,137.429 194.101,128.689 183.871,121.359 C178.771,117.699 173.411,114.349 167.791,111.649 C166.38,110.979 164.96,110.369 163.521,109.829 C162.111,109.309 160.591,108.819 159.321,108.679 L159.111,108.649 L159.031,108.659 L158.851,108.699 C158.71,108.749 158.511,108.869 158.31,109.049 C157.911,109.389 157.5,109.939 157.13,110.539 C156.401,111.749 155.791,113.149 155.25,114.589 C153.161,120.389 151.921,126.649 150.791,132.859 C149.71,139.099 148.821,145.379 148.031,151.679 C146.48,164.289 145.421,176.968 144.691,189.669 C143.931,201.769 143.5,213.888 143.71,226.019 C144.491,221.478 145.541,216.978 146.941,212.548 C149.031,206.058 151.901,199.638 156.271,194.099 C158.451,191.339 160.951,188.769 163.831,186.659 C166.71,184.548 169.901,182.849 173.241,181.579 C176.571,180.298 180.06,179.539 183.55,179.089 C187.041,178.648 190.55,178.529 194.021,178.619 C197.5,178.709 201,179.029 204.491,179.819 C207.97,180.609 211.511,181.798 214.651,184.009 C216.21,185.099 217.64,186.459 218.781,188.048 C219.931,189.629 220.771,191.409 221.331,193.218 C222.441,196.869 222.5,200.558 222.191,204.058 C222.101,204.929 221.991,205.798 221.871,206.659 L221.681,207.949 L221.39,209.339 C220.941,211.169 220.201,212.898 219.271,214.478 C217.39,217.659 214.75,220.179 211.89,222.209 C209,224.228 205.8,225.718 202.46,226.659 C200.791,227.109 199.071,227.409 197.341,227.478 C197.201,227.489 197.071,227.478 196.931,227.478 C199.581,227.959 202.21,228.569 204.81,229.279 C208.511,230.269 212.161,231.499 215.741,232.909 C222.871,235.798 229.81,239.519 235.741,244.779 C238.71,247.388 241.401,250.409 243.51,253.879 C245.151,256.579 246.411,259.548 247.21,262.638 C248.88,254.509 250,246.669 250.621,239.119 C250.47,237.978 250.311,236.839 250.14,235.699 C249.991,234.699 249.84,233.709 249.681,232.709 C248.64,226.439 247.3,220.218 245.661,214.099" fill="#F5EA3F"/>
    <path d="M94.541,335.079 C103.01,330.879 111.09,342.869 127.221,333.35 C127.221,333.35 128.5,332.539 128.94,332.259 C130.59,331.169 132.32,329.859 134.15,328.279 C132.201,324.789 131.01,320.909 130.311,316.959 C129.61,313.008 129.4,308.968 129.471,304.959 C129.67,296.919 130.971,288.939 132.84,281.119 C134.13,275.819 135.701,270.599 137.51,265.449 C137.05,264.879 136.75,263.709 137.161,261.349 C139.331,249.069 140.51,239.599 142.771,232.478 C143.01,230.459 143.3,228.439 143.64,226.429 C143.63,226.298 143.621,226.159 143.611,226.029 C143.191,220.269 143,214.509 142.951,208.728 C142.88,202.349 142.951,195.978 143.101,189.599 C143.51,176.849 144.3,164.119 145.56,151.409 C146.191,145.049 146.951,138.699 147.991,132.379 C148.51,129.219 149.09,126.069 149.781,122.919 C150.48,119.779 151.271,116.639 152.371,113.529 C152.941,111.979 153.56,110.429 154.47,108.909 C154.941,108.159 155.47,107.389 156.26,106.689 C156.661,106.339 157.14,106.009 157.741,105.779 C158.041,105.659 158.371,105.579 158.72,105.539 C158.89,105.519 159.06,105.529 159.23,105.519 C159.39,105.529 159.491,105.549 159.611,105.559 C161.51,105.779 163.05,106.309 164.621,106.869 C166.17,107.449 167.67,108.089 169.14,108.789 C175.021,111.569 180.521,114.989 185.76,118.729 C206.661,133.849 223.371,154.409 234.5,177.519 C240.05,189.089 244.3,201.259 247.201,213.718 C248.831,220.939 250.061,228.239 250.871,235.589 C253.98,186.308 236.23,149.649 218.431,125.789 C190.361,88.189 150.861,67.819 127.831,67.689 C78.63,77.069 41.221,130.629 27.26,176.478 C14.04,219.919 19.121,258.609 40.851,279.989 C40.851,279.989 41.382,284.232 41.541,286.178 C42.84,280.758 44.34,275.999 45.63,271.939 C46.23,270.039 46.791,268.239 47.251,266.649 C46.94,264.329 46.811,262.019 46.78,259.808 C44.291,249.289 45.65,237.119 46.3,234.048 L47.891,234.388 C45.67,233.239 43.59,231.739 41.86,229.808 C40.121,227.888 38.811,225.519 38.07,222.968 C37.331,220.409 37.17,217.699 37.411,215.069 C37.65,212.419 38.36,209.849 39.291,207.388 C39.391,207.109 39.521,206.839 39.63,206.569 C39.721,205.869 39.811,205.179 39.92,204.489 C40.201,202.579 40.53,200.679 40.88,198.789 C41.871,193.619 43.13,188.509 44.61,183.449 C47.641,173.359 51.51,163.539 55.98,153.989 C60.431,144.429 65.63,135.219 71.51,126.429 C74.471,122.039 77.65,117.799 81.17,113.779 C82.94,111.789 84.811,109.849 86.86,108.059 C87.891,107.169 88.971,106.309 90.15,105.539 C91.331,104.769 92.601,104.049 94.15,103.629 C94.911,103.409 95.79,103.329 96.701,103.409 C97.63,103.529 98.57,103.919 99.32,104.519 C100.04,105.139 100.561,105.909 100.9,106.589 C101.26,107.289 101.51,107.989 101.73,108.669 C102.541,111.409 102.84,114.089 103.081,116.759 C103.5,122.089 103.48,127.379 103.32,132.649 C102.931,143.189 102.101,153.669 100.931,164.109 C98.581,184.968 95.78,205.798 91.491,226.349 C91.81,224.256 92.102,222.16 92.39,220.064 L86.655,227.652 C86.645,228.108 86.635,228.564 86.61,229.019 C86.54,230.289 86.431,231.548 86.221,232.798 C86.001,234.039 85.73,235.308 85.11,236.409 C85.46,235.209 85.52,233.968 85.491,232.739 C85.481,231.509 85.4,230.279 85.26,229.058 C85.001,226.609 84.621,224.179 84.11,221.769 C83.15,216.959 81.82,212.218 80.121,207.689 C78.371,203.199 76.3,198.779 73.391,195.308 C71.94,193.589 70.28,192.159 68.471,191.349 C66.69,190.509 64.73,190.459 62.65,190.859 C60.581,191.269 58.51,192.179 56.561,193.359 C54.61,194.529 52.78,195.978 51.07,197.579 C47.681,200.789 44.8,204.638 42.771,208.869 C40.8,213.099 39.63,217.819 40.391,222.439 C40.721,224.749 41.621,226.978 42.931,228.989 C44.23,231.009 45.971,232.789 47.891,234.388 L49.48,234.728 L50.51,234.259 C49.88,232.859 49.241,231.339 48.61,229.709 C58.13,214.569 78.29,223.798 80.701,251.718 C81.251,249.779 81.741,247.819 82.141,245.849 C82.53,243.829 82.86,241.789 82.831,239.699 C83.201,241.759 83.181,243.879 83.03,245.968 C82.871,248.069 82.561,250.138 82.21,252.209 C81.88,254.009 81.51,255.798 81.11,257.579 C80.59,259.879 80.021,262.159 79.411,264.419 C78.371,268.459 77.161,272.439 76.001,276.428 L72.391,288.339 C72.121,289.218 71.86,290.109 71.59,290.999 C69.471,300.279 66.971,310.559 65.21,315.659 C64.681,318.539 64.26,321.439 64.13,324.359 C64.021,326.389 64.09,328.428 64.38,330.449 C64.71,332.449 65.311,334.439 66.471,336.179 L66.471,336.189 C75.561,337.409 86.67,338.979 94.541,335.079" fill="#F1AA49"/>
    <path d="M93.105,214.636 C93.165,214.17 93.225,213.703 93.284,213.236 C93.494,211.56 93.696,209.882 93.896,208.204 C93.982,207.464 94.068,206.724 94.153,205.985 C94.319,204.55 94.484,203.116 94.646,201.681 C94.886,199.5 95.127,197.32 95.36,195.138 C96.54,184.729 97.61,174.308 98.451,163.869 C99.251,153.439 100.05,142.999 100.251,132.569 C100.331,127.359 100.36,122.149 99.92,117.029 C99.69,114.479 99.36,111.919 98.661,109.629 C98.32,108.499 97.8,107.459 97.271,107.009 C96.991,106.809 96.69,106.679 96.32,106.619 C95.92,106.609 95.48,106.619 94.98,106.769 C93.98,107.029 92.92,107.589 91.911,108.239 C90.9,108.909 89.911,109.669 88.96,110.489 C87.05,112.139 85.26,113.979 83.55,115.889 C80.121,119.739 77.01,123.899 74.05,128.169 C68.11,136.699 62.96,145.789 58.23,155.079 C53.53,164.399 49.44,174.029 46.121,183.929 C43.8,190.67 41.9,197.569 40.521,204.579 C42.36,200.769 44.88,197.308 47.851,194.279 C49.71,192.399 51.771,190.709 54.05,189.259 C56.34,187.839 58.871,186.67 61.69,186.089 L62.751,185.888 C63.11,185.839 63.48,185.829 63.851,185.798 C64.57,185.718 65.331,185.759 66.081,185.808 C66.451,185.819 66.831,185.879 67.21,185.959 L68.331,186.189 C69.05,186.42 69.791,186.649 70.46,186.968 C73.181,188.269 75.3,190.259 76.98,192.399 C78.661,194.548 79.971,196.859 81.05,199.229 C82.141,201.589 83.01,204.029 83.73,206.479 C85.201,211.379 86.05,216.409 86.48,221.439 C86.547,222.431 86.598,223.423 86.631,224.415 L86.64,224.608 C86.671,225.623 86.68,226.636 86.655,227.651 L86.655,227.652 L92.39,220.064 L92.391,220.062 C92.639,218.256 92.874,216.446 93.105,214.636" fill="#F5EA3F"/>
    <path d="M69.566,239.167 L69.551,238.98 C69.173,240.404 68.363,241.545 67.337,242.333 C67.201,242.437 67.075,242.556 66.932,242.648 C65.696,243.406 64.214,243.648 62.858,243.306 C62.055,243.13 61.313,242.732 60.682,242.187 C60.362,241.911 60.07,241.599 59.816,241.253 C59.721,241.124 59.629,240.991 59.544,240.853 C59.045,240.013 58.767,239.015 58.745,237.956 C58.736,237.572 58.763,237.181 58.825,236.785 C58.846,236.656 58.863,236.525 58.892,236.396 C57.9,237.747 57.698,239.73 58.406,241.411 C58.973,242.808 60.14,243.964 61.558,244.57 C61.856,244.697 62.16,244.81 62.477,244.884 C63.311,245.084 64.184,245.086 65.02,244.924 C65.784,244.777 66.518,244.491 67.156,244.062 C67.341,243.939 67.518,243.806 67.686,243.661 C68.593,242.896 69.215,241.841 69.469,240.743 C69.591,240.218 69.625,239.685 69.566,239.167" fill="#FFFFFE"/>
    <path d="M157.986,236.22 C158.574,237.588 159.564,238.779 160.783,239.666 C161.667,240.307 162.667,240.795 163.742,241.047 C164.377,241.189 165.027,241.266 165.677,241.273 C166.328,241.279 166.98,241.214 167.615,241.072 C168.561,240.846 169.476,240.478 170.289,239.961 C170.56,239.787 170.82,239.598 171.066,239.392 C172.609,238.137 173.621,236.312 173.898,234.436 C173.977,233.894 174.004,233.347 173.953,232.809 L173.951,232.82 C173.855,233.305 173.713,233.77 173.545,234.22 C172.996,235.693 172.092,236.966 170.945,237.908 C170.74,238.076 170.531,238.234 170.312,238.38 C170.144,238.49 169.967,238.587 169.792,238.683 C168.058,239.643 166.01,239.939 164.123,239.468 C163.382,239.302 162.679,239.01 162.029,238.625 C161.125,238.089 160.328,237.365 159.689,236.51 C159.486,236.238 159.293,235.959 159.125,235.662 C158.053,233.752 157.773,231.349 158.433,229.047 L158.429,229.053 C158.355,229.171 158.296,229.298 158.228,229.421 C157.131,231.41 157.008,234.012 157.986,236.22" fill="#FFFFFE"/>
    <path d="M248.831,468.849 C252.021,459.719 247.05,443.489 234.781,423.089 C225.05,406.889 213.261,392.479 207.05,387.289 C205.13,389.359 201.14,393.439 201.14,393.439 C200.384,397.147 199.543,400.677 198.638,404.058 C200.911,405.191 202.793,406.604 204.636,408.042 C207.126,410.037 209.402,412.19 211.572,414.422 C215.896,418.896 219.806,423.681 223.416,428.667 C226.998,433.671 230.304,438.868 233.107,444.331 C235.866,449.79 238.306,455.531 239.181,461.586 C237.836,455.626 234.997,450.183 231.869,445.028 C228.697,439.877 225.054,435.031 221.175,430.417 C217.271,425.822 213.095,421.46 208.627,417.506 C206.392,415.538 204.078,413.672 201.677,412.039 C200.198,411.034 198.634,410.085 197.116,409.379 C195.802,413.688 194.374,417.73 192.841,421.499 C223.4,445.699 234.931,469.919 227.15,493.589 C237.42,484.62 247.531,470.659 248.831,468.849 M199.17,511.319 C207.351,507.019 217.72,499.939 222.63,496.389 C232.48,473.109 222.021,448.969 191.521,424.599 C190.364,427.231 189.15,429.72 187.894,432.089 C188.398,432.328 188.89,432.579 189.343,432.874 C190.693,433.575 191.816,434.498 192.996,435.356 C193.591,435.779 194.083,436.297 194.628,436.762 C195.154,437.248 195.711,437.703 196.203,438.212 C197.156,439.256 198.189,440.229 199.06,441.325 C202.675,445.608 205.603,450.325 208.025,455.245 C210.455,460.162 212.324,465.32 213.638,470.591 C214.96,475.861 215.747,481.239 215.96,486.62 C215.273,481.274 214.025,476.04 212.278,471.001 C210.538,465.96 208.279,461.115 205.529,456.602 C202.791,452.089 199.601,447.862 195.933,444.221 C195.042,443.282 194.029,442.496 193.093,441.627 C192.612,441.207 192.085,440.858 191.587,440.47 C191.076,440.109 190.599,439.678 190.062,439.373 C188.476,438.333 186.82,437.486 185.172,436.898 C183.691,439.357 182.158,441.666 180.581,443.819 C195.091,457.349 210.931,489.559 199.17,511.319 M112.25,468.609 C136.65,471.399 179.271,465.679 195.191,397.779 C194.89,397.999 194.591,398.219 194.291,398.439 C189.92,401.519 183.361,405.449 175.271,408.269 C143.611,427.759 104.98,411.199 87.9,413.899 C81.061,417.969 80.69,425.549 81.67,431.359 C84.42,447.759 100.431,467.249 112.25,468.609 M59.13,442.949 C60.161,421.459 69.48,400.739 70.92,397.649 C69.409,395.048 67.944,392.179 66.558,389.125 C65.397,390.629 64.369,392.402 63.456,394.183 C62.043,396.946 60.886,399.886 59.852,402.867 C58.824,405.853 57.931,408.9 57.218,411.993 L56.729,414.322 L56.333,416.67 C56.156,418.24 55.925,419.83 56.127,421.419 C55.759,419.853 55.822,418.229 55.835,416.626 L55.986,414.22 L56.231,411.822 C56.625,408.631 57.203,405.461 57.929,402.314 C58.665,399.17 59.529,396.042 60.71,392.973 C61.309,391.44 61.953,389.913 62.761,388.419 C63.112,387.657 63.639,386.94 64.093,386.2 C64.296,385.843 64.58,385.509 64.863,385.174 C63.376,381.542 62.005,377.709 60.821,373.749 C60.641,373.139 60.48,372.539 60.311,371.949 C60.161,371.689 60.041,371.429 59.931,371.139 C53.971,383.129 39.67,417.839 59.13,442.949 M44.801,403.689 C45.13,400.799 45.621,397.849 46.281,394.839 C50.031,377.749 57.71,364.889 58.041,364.349 C58.041,364.349 57.654,361.131 57.316,357.394 C55.979,358.617 54.733,360.126 53.607,361.689 C51.956,363.986 50.535,366.5 49.229,369.071 C47.933,371.65 46.772,374.314 45.799,377.051 L45.115,379.12 C44.924,379.817 44.711,380.514 44.536,381.218 C44.221,382.632 43.901,384.064 43.96,385.533 C43.733,384.077 43.888,382.591 44.044,381.128 C44.141,380.397 44.273,379.672 44.387,378.941 L44.837,376.773 C45.504,373.895 46.371,371.063 47.394,368.276 C48.429,365.493 49.591,362.74 51.067,360.092 C52.57,357.462 54.234,354.844 56.889,352.659 L56.961,352.763 C56.854,350.951 56.8,349.275 56.851,348.049 L56.841,348.029 L56.851,348.029 C56.92,346.269 57.101,344.639 57.38,343.129 C52.23,347.279 44.021,355.479 40.65,367.769 C37.641,378.769 39.041,390.819 44.801,403.689 M61.721,350.979 C62.641,352.079 63.801,353.059 65.051,353.939 C67.571,355.699 70.411,357.109 73.331,358.349 C76.241,359.599 79.261,360.669 82.301,361.659 C83.821,362.149 85.351,362.62 86.88,363.079 L89.19,363.769 C89.4,363.839 89.621,363.909 89.841,363.969 C85.781,359.599 81.77,356.079 78.621,351.159 C73.181,342.639 66.23,340.079 62.351,338.559 C62.121,338.939 61.911,339.339 61.721,339.759 C61.721,339.759 61.721,340.039 61.551,340.139 C60.71,342.179 60.221,344.679 60.051,347.529 C60.201,348.699 60.821,349.899 61.721,350.979 M95.861,398.599 L93.19,399.879 C91.411,400.729 89.611,401.559 87.781,402.349 C85.951,403.129 84.101,403.87 82.121,404.449 C81.471,404.639 80.801,404.809 80.101,404.939 C80.821,405.699 81.54,406.409 82.261,407.019 C83.781,408.289 85.081,408.979 86.19,409.279 C87.29,408.499 88.641,407.729 90.271,406.979 C91.571,406.389 92.741,405.479 93.781,404.309 C95.001,402.429 95.931,400.389 96.641,398.239 C96.38,398.37 96.121,398.489 95.861,398.599 M96.761,397.909 C97.721,394.879 98.221,391.659 98.42,388.409 C98.641,384.759 98.46,381.089 98.061,377.629 C97.361,376.299 96.71,374.959 96.121,373.609 C95.521,372.259 94.98,370.899 94.491,369.529 C93.02,367.539 91.511,365.789 90.011,364.159 C89.721,364.099 89.431,364.039 89.141,363.969 L86.781,363.469 C85.21,363.139 83.65,362.799 82.081,362.439 C78.951,361.709 75.831,360.889 72.751,359.87 C69.681,358.859 66.63,357.659 63.73,355.989 C62.471,355.249 61.241,354.389 60.111,353.349 C60.471,358.699 61.611,364.739 63.311,370.829 C63.38,370.939 63.46,371.049 63.571,371.149 C63.741,371.329 63.98,371.499 64.19,371.669 C64.46,371.819 64.69,371.999 64.981,372.129 C66.101,372.699 67.411,373.109 68.761,373.429 C71.471,374.049 74.321,374.349 77.17,374.539 C82.891,374.87 88.681,374.759 94.44,374.37 C88.73,375.299 82.98,375.959 77.15,376.159 C74.23,376.239 71.301,376.209 68.321,375.829 C67.071,375.649 65.811,375.399 64.541,374.979 C65.931,379.319 67.571,383.609 69.38,387.62 L69.431,387.599 L69.44,387.609 C69.591,387.689 69.71,387.799 69.96,387.889 C70.38,388.089 70.94,388.229 71.491,388.359 C72.611,388.609 73.821,388.749 75.041,388.859 C77.48,389.059 79.98,389.099 82.471,389.089 C87.46,389.049 92.48,388.779 97.481,388.37 C92.551,389.319 87.581,390.12 82.571,390.709 C80.061,390.989 77.54,391.229 74.971,391.289 C73.69,391.319 72.4,391.309 71.061,391.169 C73.121,395.279 75.341,398.979 77.621,401.979 L77.67,401.949 C77.701,401.979 77.761,402.019 77.861,402.069 C78.091,402.179 78.511,402.219 78.9,402.259 C79.73,402.299 80.67,402.209 81.601,402.069 C83.46,401.799 85.361,401.329 87.251,400.819 C89.13,400.299 91.011,399.719 92.891,399.12 L95.721,398.219 C96.061,398.129 96.411,398.019 96.761,397.909 M156.991,248.199 C152.4,248.889 148.181,252.789 144.97,256.75 C144.5,257.699 144.041,258.649 143.591,259.609 C142.291,262.41 141.091,265.269 139.941,268.149 C163.361,274.859 182.041,265.339 190.31,252.66 C195.81,244.229 196.71,235.07 193.05,227.578 C181.72,240.789 165.021,246.969 156.991,248.199 M158.429,229.053 L158.431,229.049 C158.355,229.168 158.296,229.297 158.228,229.421 C157.13,231.412 157.009,234.012 157.987,236.22 C158.575,237.588 159.564,238.779 160.783,239.666 C161.667,240.309 162.667,240.797 163.741,241.049 C164.376,241.189 165.027,241.266 165.677,241.272 C166.329,241.279 166.98,241.214 167.615,241.072 C168.56,240.846 169.476,240.478 170.29,239.961 C170.562,239.787 170.823,239.597 171.071,239.389 C172.615,238.14 173.625,236.313 173.898,234.436 C173.976,233.894 174.003,233.348 173.954,232.809 L173.951,232.82 L173.951,232.809 C173.855,233.298 173.713,233.766 173.544,234.22 C172.997,235.693 172.093,236.966 170.944,237.908 C170.74,238.076 170.53,238.233 170.31,238.38 C170.142,238.49 169.968,238.586 169.792,238.683 C168.058,239.643 166.011,239.938 164.123,239.468 C163.382,239.302 162.679,239.01 162.029,238.625 C161.125,238.089 160.331,237.365 159.689,236.51 C159.487,236.238 159.292,235.959 159.124,235.662 C158.054,233.752 157.773,231.349 158.433,229.047 L158.429,229.053 M24.15,175.529 C32.19,149.139 46.221,123.739 63.67,104.019 C82.531,82.699 104.221,69.099 126.44,64.649 C127.511,61.459 131.13,50.959 136.4,39.889 C102.44,45.849 68.291,70.88 44.471,107.439 C22.311,141.459 12.54,180.449 16.971,214.929 C17.611,202.49 19.98,189.24 24.15,175.529 M226.597,347.217 C230.331,348.942 233.862,351.005 237.172,353.33 C241.313,356.245 245.131,359.549 248.593,363.169 C252.048,366.792 255.163,370.73 257.737,374.997 C260.281,379.254 262.366,383.89 263.057,388.777 C261.895,383.982 259.423,379.685 256.555,375.787 C253.659,371.89 250.28,368.378 246.63,365.225 C242.977,362.076 239.035,359.287 234.888,356.929 C231.83,355.194 228.653,353.696 225.398,352.502 C224.648,355.474 223.793,358.377 222.831,361.129 C247.081,372.389 262.911,404.249 268.531,417.249 C272.231,406.229 275.571,395.309 278.55,384.499 C276.05,376.339 253.691,346.059 228.38,335.509 C227.997,339.376 227.388,343.324 226.597,347.217 M235.25,301.969 C233.21,303.929 230.89,305.63 228.341,306.889 C227.591,307.259 226.831,307.589 226.06,307.899 C226.74,309.392 227.288,311.135 227.716,313.066 C232.591,315.072 237.099,317.667 241.331,320.577 C245.77,323.641 249.912,327.069 253.748,330.791 C257.574,334.516 261.116,338.536 264.145,342.918 C264.861,344.045 265.631,345.128 266.295,346.281 L267.269,348.023 L267.753,348.892 L268.993,351.614 C269.256,352.221 269.433,352.868 269.657,353.49 C270.153,354.721 270.31,356.056 270.59,357.335 C270.193,356.074 269.925,354.79 269.324,353.615 C269.048,353.021 268.822,352.411 268.508,351.837 L267.54,350.134 L267.058,349.287 L265.403,346.864 C264.656,345.799 263.802,344.804 263.012,343.776 C259.677,339.775 255.881,336.18 251.857,332.913 C247.825,329.65 243.542,326.717 239.072,324.191 C235.699,322.293 232.208,320.616 228.64,319.301 C228.98,323.215 228.982,327.563 228.67,332.109 C251.63,341.239 273.13,366.859 279.861,379.629 C282.63,369.219 285.071,358.909 287.17,348.719 C286.05,341.899 264.731,316.429 235.25,301.969 M237.871,299.149 C237.771,299.259 237.67,299.38 237.571,299.489 C260.611,311.079 281.611,331.449 288.241,343.339 C290.361,332.469 292.081,321.729 293.42,311.149 C292.71,308.37 288.621,302.779 280.231,295.239 C267.821,284.079 252.481,274.5 247.96,274.979 C247.861,275.809 247.741,276.63 247.602,277.439 C247.411,278.429 247.14,279.389 246.911,280.37 L246.55,281.839 L246.09,283.239 C246.049,283.364 246.01,283.489 245.969,283.614 C249.977,285.402 253.758,287.574 257.286,290.051 C261.426,292.965 265.245,296.27 268.707,299.89 C272.162,303.513 275.277,307.452 277.851,311.718 C280.394,315.975 282.479,320.611 283.171,325.499 C282.008,320.704 279.537,316.407 276.668,312.508 C273.773,308.611 270.394,305.099 266.745,301.946 C263.089,298.797 259.148,296.007 255.001,293.651 C251.5,291.664 247.843,289.99 244.093,288.726 L244.061,288.809 C242.451,292.449 240.47,295.989 237.871,299.149 M240.441,107.809 C262.071,140.709 284.941,197.939 271.71,284.079 C275.581,286.979 279.291,290.029 282.401,292.819 C286.63,296.62 291.271,301.25 294.111,305.439 C301.93,236.609 293.061,174.469 267.241,123.309 C240.901,71.089 197.39,33.209 150.72,21.759 C147.46,26.019 144.4,31.219 141.67,36.549 C178.92,43.699 215.72,70.199 240.441,107.809 M248.451,271.759 C253.111,271.969 261.01,276.429 268.741,281.92 C281.271,197.729 258.901,141.809 237.73,109.599 C213.281,72.399 176.871,46.299 140.17,39.569 C135.121,49.949 131.4,60.239 129.931,64.499 C153.97,65.779 193.161,86.499 221.031,123.849 C236.25,144.239 246.411,167.019 251.231,191.57 C256.241,217.099 255.291,244.029 248.451,271.759 M222.191,204.059 C222.101,204.929 221.991,205.799 221.871,206.66 L221.681,207.949 L221.39,209.339 C220.941,211.17 220.201,212.899 219.271,214.479 C217.39,217.66 214.75,220.179 211.89,222.209 C209,224.229 205.8,225.719 202.46,226.66 C200.791,227.109 199.071,227.41 197.341,227.479 C197.201,227.49 197.071,227.479 196.931,227.479 C199.581,227.959 202.21,228.57 204.81,229.279 C208.511,230.269 212.161,231.5 215.741,232.91 C222.871,235.799 229.81,239.519 235.741,244.779 C238.71,247.389 241.401,250.41 243.51,253.88 C245.151,256.578 246.411,259.549 247.21,262.639 C248.88,254.509 250,246.67 250.621,239.119 C250.47,237.979 250.311,236.839 250.14,235.699 C249.991,234.699 249.84,233.709 249.68,232.709 C248.64,226.439 247.3,220.219 245.661,214.099 C244.041,207.969 242.151,201.91 239.92,195.99 C237.681,190.07 235.13,184.259 232.261,178.63 C226.48,167.389 219.581,156.729 211.431,147.089 C203.331,137.429 194.101,128.689 183.871,121.36 C178.771,117.699 173.411,114.349 167.791,111.649 C166.38,110.979 164.96,110.369 163.521,109.828 C162.111,109.309 160.591,108.819 159.321,108.679 L159.111,108.649 L159.031,108.659 L158.851,108.699 C158.71,108.749 158.511,108.869 158.31,109.049 C157.911,109.389 157.5,109.939 157.13,110.539 C156.4,111.749 155.791,113.149 155.25,114.589 C153.161,120.389 151.92,126.649 150.791,132.86 C149.71,139.099 148.821,145.38 148.031,151.679 C146.48,164.289 145.42,176.969 144.691,189.67 C143.931,201.769 143.5,213.889 143.71,226.019 C144.491,221.479 145.541,216.979 146.941,212.549 C149.031,206.059 151.9,199.639 156.271,194.099 C158.451,191.339 160.951,188.769 163.831,186.66 C166.71,184.549 169.9,182.849 173.241,181.578 C176.571,180.299 180.06,179.539 183.55,179.089 C187.041,178.649 190.55,178.529 194.021,178.619 C197.5,178.709 201,179.029 204.491,179.82 C207.97,180.609 211.511,181.799 214.65,184.009 C216.21,185.099 217.64,186.459 218.781,188.049 C219.931,189.63 220.771,191.41 221.331,193.219 C222.441,196.869 222.5,200.559 222.191,204.059 M209.191,384.859 C220.591,394.559 250.26,433.969 252.831,459.309 C257.991,446.729 262.691,434.259 266.941,421.909 C263.25,412.87 246.96,376.12 221.691,364.179 C219.791,368.979 217.571,373.199 215.071,376.429 C214.8,376.923 214.496,377.426 214.193,377.928 C219.128,380.25 223.408,383.433 227.269,386.918 C231.706,390.947 235.638,395.403 239.219,400.089 C242.79,404.784 246.012,409.719 248.792,414.888 C249.451,416.201 250.16,417.483 250.774,418.815 C251.356,420.165 252.032,421.463 252.531,422.844 C253.056,424.214 253.602,425.57 253.98,426.989 C254.458,428.373 254.682,429.829 254.96,431.253 C254.565,429.846 254.23,428.438 253.643,427.103 C253.159,425.737 252.507,424.438 251.881,423.133 C251.283,421.818 250.506,420.584 249.83,419.309 C249.12,418.05 248.316,416.841 247.566,415.609 C244.423,410.755 240.871,406.179 237.03,401.901 C233.181,397.632 229.031,393.649 224.542,390.196 C220.336,386.962 215.746,384.228 210.982,382.623 C210.412,383.367 209.816,384.113 209.191,384.859 M122.681,392.719 C130.621,393.209 138.511,393.739 146.4,393.919 C154.281,394.099 162.15,394.039 169.951,393.319 C173.851,392.999 177.73,392.489 181.56,391.779 C185.411,391.099 189.181,390.129 192.88,388.939 C196.56,387.699 200.15,386.159 203.5,384.179 C205.111,383.249 206.64,382.199 208.101,381.039 C211.911,376.139 214.201,371.579 214.741,368.259 C215.67,362.519 212.691,352.679 203.911,344.659 C202.691,343.539 201.22,342.349 199.491,341.159 C198.72,342.849 197.331,344.229 195.96,345.469 C194.321,346.939 192.521,348.199 190.71,349.419 C187.041,351.799 183.191,353.879 179.271,355.769 C171.42,359.569 163.271,362.659 155.011,365.379 C146.73,368.029 138.31,370.309 129.73,371.839 C125.451,372.62 121.121,373.199 116.761,373.469 C114.581,373.579 112.391,373.649 110.201,373.519 C108.031,373.399 105.831,373.12 103.761,372.449 C105.911,372.779 108.061,372.749 110.201,372.62 C112.341,372.479 114.471,372.229 116.591,371.899 C120.831,371.259 125.041,370.349 129.221,369.37 C133.391,368.339 137.55,367.289 141.681,366.069 C145.81,364.889 149.931,363.649 154.011,362.299 C158.111,360.999 162.17,359.589 166.21,358.109 C170.261,356.669 174.25,355.079 178.23,353.459 C182.181,351.789 186.121,350.059 189.9,348.049 C191.791,347.049 193.65,345.989 195.4,344.759 C196.281,344.159 197.13,343.509 197.9,342.769 C198.451,342.259 198.96,341.709 199.38,341.079 C189.121,334.019 169.681,326.939 135.73,334.039 C131.791,343.079 110.371,358.12 107.621,359.979 C105.73,361.269 102.65,362.699 100.991,366.439 C100.96,368.279 101.031,370.389 101.301,372.689 C101.54,374.649 101.92,376.739 102.5,378.889 C102.851,379.469 103.181,380.039 103.551,380.609 C109.931,390.549 122.051,403.179 143.661,407.519 C150.48,408.139 158.38,408.079 167.5,407.149 C178.341,404.649 187.081,399.549 192.42,395.789 C193.761,394.839 195.041,393.859 196.281,392.87 C196.31,392.729 196.701,392.529 196.701,392.529 C199.451,390.309 201.911,388.009 204.071,385.719 C200.88,387.989 197.4,389.859 193.761,391.319 C190.011,392.849 186.101,393.919 182.17,394.789 C178.22,395.629 174.23,396.169 170.23,396.549 C166.23,396.87 162.23,397.039 158.23,397.019 C154.23,396.959 150.23,396.809 146.261,396.439 C138.31,395.779 130.42,394.539 122.681,392.719 M229.321,20.529 C241.34,24.559 252.911,30.019 263.621,36.899 C275.541,44.599 286.321,54.049 295.731,64.67 C299.09,68.449 302.26,72.38 305.271,76.429 C309.68,75.089 314.321,74.399 319.13,74.399 C309.191,64.609 298.161,55.88 286.43,48.249 C276.041,41.429 265.102,35.429 253.831,30.119 L245.321,26.259 L236.691,22.639 L232.771,21.099 C231.621,20.899 230.47,20.709 229.321,20.529 M322.021,166.759 C326.531,160.279 331.611,152.959 333.981,143.63 C333.491,142.029 332.981,140.429 332.46,138.839 C328.96,133.739 321.791,130.328 315.55,129.509 C311.111,128.929 307.63,129.719 306.651,131.529 L305.941,132.849 L304.561,132.239 C299.75,130.099 295.72,126.88 292.371,123.249 C295.96,130.679 299.22,138.259 302.18,145.959 C306.781,158.049 310.521,170.449 313.481,183.039 C314.491,177.609 318.041,172.479 322.021,166.759 M340.97,82.299 C317.441,72.549 295.42,78.439 281.911,98.049 C283.151,101.989 289.901,121.309 304.72,128.729 C306.38,126.999 309.231,126.069 312.831,126.069 C313.821,126.069 314.871,126.149 315.97,126.289 C325.071,127.479 335.38,133.328 337.491,142.199 L337.581,142.559 L337.5,142.919 C335.161,153.569 329.602,161.559 324.691,168.609 C320.201,175.059 316.291,180.689 316.441,186.439 C317.59,186.229 320.13,185.349 324.491,182.619 C338.102,174.119 365.491,149.719 371.72,118.309 C374.071,106.449 360.281,90.299 340.97,82.299 M240.781,485.579 C244.93,483.509 249.061,481.379 253.102,479.099 L257.371,476.719 L261.581,474.239 C264.411,472.62 267.13,470.809 269.901,469.109 C280.84,462.029 291.3,454.229 301.09,445.679 C306.01,441.429 310.741,436.969 315.34,432.399 C319.88,427.759 324.34,423.029 328.541,418.079 C336.97,408.219 344.731,397.779 351.63,386.799 C365.441,364.859 376.21,341.029 383.771,316.239 C391.371,291.46 395.97,265.75 397.521,239.88 C398.331,226.939 398.38,213.959 397.55,201.039 C396.72,188.119 395.01,175.25 392.09,162.699 C389.09,150.209 384.441,138.069 378.731,126.489 C377.491,124.009 376.201,121.559 374.861,119.13 C373.281,127.019 370.401,134.509 366.75,141.459 C369.561,149.328 371.861,157.38 373.731,165.519 L374.75,170.139 C375.081,171.679 375.451,173.219 375.661,174.779 L377.151,184.119 C377.43,185.679 377.541,187.25 377.72,188.82 L378.22,193.519 L378.71,198.219 C378.84,199.789 378.89,201.359 378.991,202.929 L379.5,212.359 L379.55,221.799 L379.571,226.519 L379.38,231.24 L378.991,240.66 C378.791,243.799 378.46,246.92 378.201,250.059 L377.791,254.75 L377.581,257.099 L377.281,259.429 L376.061,268.769 L375.441,273.439 L374.651,278.079 C373.59,284.269 372.63,290.469 371.25,296.589 L369.331,305.799 C369.031,307.339 368.64,308.87 368.25,310.399 L367.09,314.969 C363.89,327.149 359.89,339.12 355.061,350.739 C350.18,362.339 344.491,373.589 338.09,384.409 C325.321,406.059 309.661,425.929 292.041,443.739 C283.22,452.639 273.84,460.969 264.081,468.799 C256.581,474.749 248.852,480.439 240.781,485.579 M351.121,264.539 C349.67,278.67 347.111,292.649 343.75,306.42 C340.371,320.179 336.21,333.729 331.3,347.009 C326.39,360.289 320.76,373.299 314.451,385.959 C308.17,398.629 301.161,410.949 293.46,422.819 C285.76,434.679 277.38,446.109 268.26,456.919 C259.831,466.879 250.791,476.339 241.021,484.999 C243.59,483.199 246.13,481.339 248.64,479.449 C253.63,475.709 258.5,471.819 263.26,467.799 C272.75,459.719 281.831,451.169 290.321,442.079 C307.411,423.999 322.481,404.029 334.8,382.489 C340.941,371.719 346.39,360.559 351.111,349.109 C355.771,337.629 359.59,325.829 362.621,313.829 C368.401,289.729 372.571,265.099 374.13,240.359 L374.541,231.07 L374.741,226.429 L374.71,212.5 L374.241,203.229 C374.151,201.679 374.111,200.13 373.981,198.589 L373.041,189.369 C372.871,187.828 372.771,186.279 372.491,184.759 L371.061,175.599 C370.861,174.07 370.51,172.57 370.201,171.049 L369.241,166.519 C367.76,159.799 365.97,153.13 363.852,146.578 C358.46,155.519 351.89,163.429 345.321,169.939 C346.01,173.219 346.661,176.5 347.26,179.799 C349.771,193.75 351.331,207.859 352.021,222.019 C352.71,236.17 352.55,250.389 351.121,264.539 M283.533,36.475 L283.584,36.279 C274.399,32.611 265.047,29.369 255.55,26.599 C249.781,24.92 243.96,23.409 238.111,22.069 C237.491,21.949 236.88,21.828 236.261,21.719 L236.951,21.959 L245.71,25.328 L254.361,28.949 C265.831,33.949 277.01,39.67 287.701,46.249 C298.371,52.849 308.51,60.349 317.871,68.779 C319.981,70.679 322.05,72.639 324.071,74.639 C329.951,75.199 336.031,76.739 342.21,79.299 C344.521,80.259 346.741,81.328 348.88,82.499 C334.791,66.909 318.05,53.679 299.51,43.639 C297.102,42.319 294.651,41.069 292.191,39.859 C289.756,38.804 287.307,37.787 284.848,36.793 C284.41,36.686 283.972,36.582 283.533,36.475 M186.581,14.789 C186.871,14.899 187.17,14.989 187.46,15.099 C192.5,17.039 197.38,19.38 202.13,21.959 C206.871,24.549 211.48,27.389 215.92,30.479 C220.371,33.549 224.701,36.809 228.861,40.269 C245.51,54.119 259.96,70.539 272.191,88.409 C274.401,91.619 276.51,94.889 278.561,98.199 L278.371,97.499 L278.781,96.88 C284.991,87.599 292.941,81.109 302.01,77.559 C299.291,73.828 296.441,70.189 293.43,66.679 C284.352,56.099 273.89,46.679 262.311,38.889 C250.76,31.029 238.071,24.849 224.781,20.399 C222.15,19.519 219.5,18.729 216.831,17.979 C214.491,17.609 212.14,17.269 209.791,16.949 C202.091,15.929 194.341,15.219 186.581,14.789 M160.48,14.078 C159.65,14.17 158.821,14.269 157.98,14.38 C156.281,15.589 154.621,17.159 152.991,18.989 C200.011,31.099 243.661,69.349 270.14,121.849 C291.21,163.589 301.321,212.38 300.21,266.839 C299.911,281.79 298.741,297.079 296.731,312.659 L296.72,312.71 L296.72,312.759 C295.14,324.989 293.021,337.429 290.401,350.029 C290.371,350.259 290.331,350.479 290.271,350.679 L290.26,350.679 C287.901,361.939 285.14,373.329 281.951,384.87 C281.991,385.109 282.031,385.349 282.041,385.549 L281.75,385.569 C278.43,397.539 274.651,409.649 270.441,421.889 C270.621,422.37 270.031,423.099 270.031,423.099 C264.661,438.599 258.581,454.309 251.8,470.219 L251.63,470.509 C251.5,470.699 250.861,471.609 249.821,472.999 C254.491,468.189 258.981,463.199 263.281,458.069 C273.17,446.319 282.14,433.789 290.3,420.799 C305.071,397.029 317.5,371.769 326.97,345.419 C336.47,319.13 343.451,291.819 346.271,264.059 C347.71,250.199 347.911,236.199 347.271,222.24 C346.651,208.279 345.081,194.369 342.731,180.599 C342.331,178.269 341.89,175.949 341.441,173.63 C332.46,181.839 323.96,187.289 319.081,189.059 C317.84,189.509 316.8,189.729 315.941,189.729 C315.571,189.729 315.241,189.679 314.93,189.599 C316.281,195.979 317.46,202.389 318.401,208.828 C321.51,230.299 322.21,252.078 320.981,273.699 C320.352,284.509 319.09,295.279 317.481,305.979 C317.041,308.639 316.68,311.329 316.18,313.979 L314.691,321.96 C314.161,324.609 313.55,327.25 312.981,329.889 L312.102,333.849 L311.13,337.779 C306.071,358.809 299.061,379.309 290.901,399.269 C286.64,409.179 282.281,419.039 277.42,428.659 C275.081,433.509 272.531,438.259 270.031,443.019 C268.791,445.409 267.441,447.739 266.13,450.089 L262.17,457.129 C267.031,447.529 271.84,437.899 276.25,428.099 C280.771,418.349 284.781,408.379 288.68,398.379 C296.271,378.309 302.731,357.809 307.43,336.909 C316.911,295.189 319.75,251.828 313.581,209.529 C310.571,188.389 305.321,167.578 297.871,147.578 C290.47,127.559 280.811,108.36 269.041,90.529 C257.26,72.719 243.411,56.189 227.321,42.078 C223.331,38.519 219.161,35.149 214.861,31.969 C210.571,28.769 206.111,25.799 201.491,23.078 C196.88,20.359 192.121,17.889 187.181,15.779 C186.3,15.399 185.4,15.049 184.5,14.689 C181.261,14.539 178.011,14.409 174.741,14.339 L168.821,14.209 L165.8,14.119 C164.851,14.078 163.92,14.039 162.841,13.92 C162.161,13.939 161.291,14.009 160.48,14.078 M18.861,243.679 C18.161,240.189 17.641,236.578 17.301,232.869 C6.201,193.759 15.341,146.209 41.751,105.669 C66.591,67.539 102.561,41.699 138.15,36.319 C142.121,28.459 146.871,20.67 152.081,15.328 C148.47,15.999 144.861,16.819 141.291,17.739 C134.031,19.639 126.871,21.989 119.9,24.779 C105.951,30.349 92.65,37.639 80.79,46.828 C74.851,51.399 69.301,56.469 63.991,61.869 C58.69,67.249 53.65,72.899 48.931,78.809 C39.46,90.599 31.15,103.349 24.521,116.949 C17.88,130.529 12.971,144.969 10.25,159.849 C7.48,174.719 7.091,190.029 8.98,205.089 C10.67,218.259 14.031,231.24 18.861,243.679 M58.745,237.955 C58.737,237.572 58.763,237.18 58.826,236.785 C58.846,236.656 58.864,236.527 58.892,236.396 C57.9,237.746 57.699,239.731 58.407,241.412 C58.973,242.808 60.14,243.965 61.558,244.572 C61.856,244.699 62.163,244.812 62.48,244.889 C63.312,245.086 64.184,245.088 65.02,244.924 C65.785,244.777 66.518,244.492 67.157,244.063 C67.343,243.939 67.522,243.805 67.69,243.66 C68.598,242.896 69.216,241.843 69.47,240.744 C69.591,240.218 69.625,239.685 69.565,239.166 L69.551,238.979 C69.17,240.4 68.364,241.543 67.336,242.332 C67.201,242.436 67.076,242.557 66.932,242.647 C65.696,243.406 64.214,243.648 62.858,243.307 C62.055,243.13 61.312,242.731 60.683,242.187 C60.363,241.91 60.071,241.598 59.816,241.254 C59.721,241.123 59.628,240.99 59.544,240.852 C59.044,240.012 58.768,239.014 58.745,237.955 M63.391,311.759 C63.751,309.299 64.241,306.859 64.771,304.439 C65.251,297.389 64.371,289.559 58.051,285.529 C53.94,282.899 51.301,279.38 49.611,275.509 C44.94,290.409 38.42,314.009 49.281,343.839 C54.46,338.599 59.071,335.939 59.44,335.729 L60.771,335.489 C62.531,335.659 64.451,335.919 66.471,336.189 C75.561,337.409 86.67,338.979 94.541,335.079 C103.011,330.879 111.091,342.87 127.221,333.349 C127.221,333.349 128.5,332.539 128.94,332.259 C130.591,331.169 132.321,329.859 134.15,328.279 C135.351,328.859 136.021,329.659 136.25,330.62 C176.701,322.479 197.23,334.149 206.111,342.269 C215.161,350.539 218.571,360.499 218.101,367.329 L219.46,363.539 C221.161,327.04 171.31,301.559 145.75,292.969 L160.491,288.609 C160.491,288.609 161.88,289.63 164.291,291.219 C170.761,294.009 177.181,296.87 183.73,299.299 C187.271,300.639 190.831,301.889 194.431,302.929 C198.031,303.96 201.661,304.849 205.31,305.37 C208.96,305.889 212.63,306.079 216.191,305.75 C219.75,305.409 223.181,304.439 226.241,302.799 C229.291,301.159 231.991,298.899 234.191,296.139 C236.4,293.389 238.15,290.219 239.581,286.889 C241.041,283.559 242.151,280 242.92,276.54 C243.602,273.04 243.701,269.469 243.22,266 C242.75,262.519 241.581,259.139 239.831,256.039 C238.05,252.959 235.761,250.119 233.15,247.559 C230.541,245 227.601,242.74 224.511,240.67 C221.42,238.589 218.14,236.75 214.771,235.089 C211.411,233.399 207.92,231.929 204.39,230.559 C202.63,229.869 200.841,229.24 199.041,228.63 C198.291,228.369 197.541,228.13 196.791,227.889 L196.67,227.849 C199.88,236.019 198.701,245.74 193.031,254.429 C186.121,265.039 172.531,273.63 155.13,273.63 C149.98,273.63 144.5,272.859 138.75,271.189 C137.451,274.67 136.25,278.189 135.19,281.75 C132.96,289.339 131.291,297.109 130.69,305.009 C130.411,308.96 130.42,312.939 130.911,316.87 C131.4,320.79 132.38,324.699 134.15,328.279 C132.201,324.79 131.011,320.909 130.311,316.96 C129.611,313.009 129.4,308.969 129.471,304.96 C129.67,296.92 130.971,288.939 132.841,281.12 C134.13,275.819 135.701,270.599 137.511,265.449 C137.05,264.88 136.75,263.709 137.161,261.349 C139.331,249.07 140.511,239.599 142.771,232.479 C145.781,223 150.701,217.699 162.42,215.549 C182.951,211.789 179.681,219.74 199.72,217.57 C198.42,220.189 196.9,222.609 195.23,224.849 C195.591,225.49 195.92,226.149 196.22,226.82 C196.42,226.799 196.621,226.769 196.821,226.729 C196.97,226.719 197.111,226.699 197.261,226.67 C198.88,226.38 200.46,225.869 201.98,225.24 C205.021,224 207.831,222.219 210.3,220.149 C212.781,218.07 214.861,215.57 216.25,212.82 C216.951,211.449 217.451,210.009 217.71,208.539 L217.871,207.439 L217.991,206.209 C218.05,205.399 218.111,204.589 218.14,203.779 C218.291,200.57 218.111,197.38 217.14,194.589 C216.65,193.189 215.991,191.899 215.111,190.779 C214.241,189.66 213.17,188.689 211.97,187.849 C209.55,186.179 206.56,185.17 203.47,184.509 C200.38,183.839 197.121,183.599 193.861,183.449 C187.331,183.189 180.8,183.809 174.761,185.839 C171.761,186.869 168.89,188.289 166.261,190.07 C163.661,191.899 161.25,194.019 159.13,196.459 C154.88,201.339 151.65,207.199 149.101,213.349 C147.791,216.42 146.691,219.578 145.63,222.769 C144.611,225.969 143.661,229.209 142.771,232.479 C143.011,230.459 143.3,228.439 143.64,226.429 C143.63,226.299 143.621,226.16 143.611,226.029 C143.191,220.269 143,214.509 142.951,208.729 C142.88,202.349 142.951,195.979 143.101,189.599 C143.511,176.849 144.3,164.119 145.56,151.409 C146.191,145.049 146.951,138.699 147.991,132.38 C148.511,129.219 149.091,126.069 149.781,122.919 C150.48,119.779 151.271,116.639 152.371,113.529 C152.941,111.979 153.56,110.429 154.47,108.909 C154.941,108.159 155.47,107.389 156.261,106.689 C156.661,106.339 157.14,106.009 157.741,105.779 C158.041,105.659 158.371,105.578 158.72,105.539 C158.89,105.519 159.06,105.529 159.23,105.519 C159.39,105.529 159.491,105.549 159.611,105.559 C161.511,105.779 163.05,106.309 164.621,106.869 C166.17,107.449 167.67,108.089 169.14,108.789 C175.021,111.569 180.521,114.989 185.761,118.729 C206.661,133.849 223.371,154.409 234.5,177.519 C240.05,189.089 244.3,201.259 247.201,213.719 C248.831,220.939 250.061,228.24 250.871,235.589 C253.981,186.309 236.23,149.649 218.431,125.789 C190.361,88.189 150.861,67.819 127.831,67.689 C78.63,77.069 41.221,130.63 27.261,176.479 C14.04,219.92 19.121,258.609 40.851,279.989 C40.851,279.989 41.383,284.231 41.541,286.179 C42.841,280.759 44.341,276 45.63,271.939 C46.23,270.04 46.791,268.24 47.251,266.649 C46.94,264.328 46.811,262.019 46.781,259.809 C44.291,249.289 45.65,237.119 46.301,234.049 L49.48,234.729 C48.241,240.5 46.841,263.229 56.241,270.649 C60.561,274.059 66.841,273.859 74.891,270.04 L76.991,263.699 C77.71,261.509 78.42,259.32 79.101,257.119 C79.101,256.578 79.04,256.119 78.911,255.75 C75.321,245.799 63.17,262.328 50.511,234.259 C49.88,232.859 49.241,231.339 48.611,229.709 C58.13,214.57 78.29,223.799 80.701,251.719 C81.251,249.779 81.741,247.82 82.141,245.849 C82.531,243.828 82.861,241.789 82.831,239.699 C83.201,241.759 83.181,243.88 83.031,245.969 C82.871,248.07 82.561,250.139 82.21,252.209 C81.88,254.009 81.511,255.799 81.111,257.578 C80.591,259.88 80.021,262.16 79.411,264.42 C78.371,268.459 77.161,272.439 76.001,276.429 L72.391,288.339 C72.121,289.219 71.861,290.109 71.591,291 C69.471,300.279 66.971,310.559 65.21,315.659 C64.681,318.54 64.261,321.439 64.13,324.359 C64.021,326.389 64.091,328.429 64.38,330.449 C64.71,332.449 65.311,334.439 66.471,336.179 C65.771,335.419 65.17,334.539 64.67,333.609 C64.181,332.659 63.821,331.659 63.511,330.649 C62.92,328.599 62.661,326.479 62.531,324.359 C62.351,320.13 62.751,315.909 63.391,311.759 M84.94,452.019 C80.871,445.559 77.92,438.499 76.861,432.169 C75.341,423.139 77.501,415.949 82.96,411.419 C82.081,410.949 81.15,410.319 80.181,409.509 C79.919,409.292 79.659,409.061 79.397,408.82 C78.397,409.821 77.493,411.339 76.771,412.909 C75.953,414.662 75.275,416.538 74.68,418.447 C73.491,422.274 72.626,426.249 71.938,430.252 C71.255,434.258 70.773,438.31 70.504,442.38 C70.376,444.415 70.31,446.455 70.338,448.496 C70.373,450.534 70.498,452.579 70.92,454.586 C70.336,452.62 70.04,450.569 69.839,448.523 C69.643,446.474 69.544,444.417 69.504,442.357 C69.441,438.239 69.595,434.114 69.956,429.997 C70.323,425.881 70.868,421.768 71.781,417.675 C72.242,415.63 72.789,413.589 73.542,411.558 C74.265,409.669 75.091,407.752 76.674,405.95 C75.809,404.927 74.941,403.806 74.081,402.589 C70.251,411.719 60.19,438.709 65.361,459.919 C67.051,466.859 72.241,475.169 80.801,484.669 C78.011,469.989 83.44,455.609 84.94,452.019 M103.161,470.519 C100.99,469.311 98.853,467.772 96.785,466.001 C95.269,469.631 94.153,473.507 93.345,477.449 C92.848,479.938 92.476,482.463 92.253,485.006 C92.038,487.548 91.949,490.114 92.269,492.669 C91.62,490.173 91.37,487.572 91.253,484.985 C91.144,482.392 91.187,479.788 91.363,477.184 C91.706,472.529 92.435,467.861 93.843,463.273 C91.903,461.329 90.05,459.194 88.331,456.919 C85.391,465.599 80.051,487.62 95.471,501.579 C97.101,503.059 98.721,504.489 100.201,505.779 C97.021,491.029 101.311,475.979 103.161,470.519 M132.111,473.219 C128.492,473.727 125.055,473.936 121.871,473.966 C121.78,474.204 121.695,474.446 121.635,474.71 C121.415,475.584 121.113,476.423 120.969,477.345 C120.581,479.144 120.33,481.004 120.109,482.872 C119.687,486.62 119.557,490.432 119.5,494.246 C119.456,498.061 119.528,501.89 119.717,505.715 C119.917,509.539 120.143,513.371 120.692,517.169 C119.814,513.427 119.255,509.616 118.721,505.806 C118.199,501.993 117.792,498.162 117.5,494.309 C117.224,490.457 117.018,486.589 117.117,482.678 C117.176,480.722 117.268,478.758 117.516,476.772 C117.583,475.831 117.811,474.872 117.978,473.916 C115.688,473.832 113.57,473.665 111.69,473.449 C110.341,473.289 108.98,472.969 107.621,472.509 C104.88,480.729 97.23,509.329 117.391,524.789 L127.801,525.359 C137.71,516.679 141.46,490.399 132.111,473.219 M160.621,521.589 C180.861,496.149 165.98,474.679 156.73,465.149 C154.242,466.517 151.745,467.689 149.261,468.689 C150.552,472.105 151.562,475.586 152.341,479.106 C153.23,483.165 153.802,487.282 154.028,491.415 C154.245,495.545 154.116,499.706 153.4,503.774 C152.679,507.823 151.349,511.839 148.96,515.169 C151.066,511.654 152.029,507.634 152.41,503.639 C152.781,499.627 152.574,495.584 152.037,491.604 C151.49,487.623 150.612,483.691 149.437,479.864 C148.396,476.481 147.126,473.176 145.621,470.026 C142.743,471.003 139.898,471.773 137.13,472.349 C145.25,488.979 143.47,514.009 133.741,526.149 C141.15,526.809 157.65,525.319 160.621,521.589 M194.97,512.049 C207.431,493.379 194.14,460.899 178.611,446.409 C176.73,448.778 174.79,450.937 172.812,452.931 C179.663,459.828 184.472,468.362 187.263,477.343 C188.818,482.358 189.73,487.552 189.91,492.757 C190.039,497.936 189.439,503.264 187.21,507.919 C188.995,503.08 189.076,497.871 188.493,492.865 C187.851,487.844 186.509,482.935 184.586,478.3 C181.086,469.852 175.689,462.258 168.851,456.641 C166.275,458.883 163.65,460.867 161,462.589 C169.98,472.279 186.25,495.849 165.411,523.37 C178.701,521.079 192.73,513.329 194.97,512.049 M430.271,168.309 C425.291,153.649 418.5,139.619 409.831,126.86 L406.491,122.139 L402.991,117.539 L399.3,113.089 C398.061,111.649 396.791,110.279 395.531,108.869 C394.941,108.139 394.191,107.529 393.491,106.869 L391.361,104.929 C389.97,103.63 388.491,102.328 387.021,101.039 C385.571,99.729 384.09,98.439 382.602,97.179 C381.111,95.909 379.64,94.619 378.121,93.389 C370.531,87.029 362.68,80.989 354.621,75.269 C355.691,76.209 356.771,77.149 357.831,78.109 C367.871,87.149 377.111,97.119 385.271,107.939 C393.38,118.789 400.42,130.459 406.17,142.739 C411.92,155.029 416.311,167.939 419.39,181.16 C422.43,194.399 423.901,207.949 424.26,221.49 L424.311,226.57 C424.311,228.269 424.401,229.969 424.271,231.66 L423.771,241.799 C423.731,243.5 423.481,245.179 423.321,246.859 L422.22,256.959 L421.491,261.949 C419.541,275.269 417.201,288.549 414.031,301.659 C410.88,314.769 407.041,327.739 402.25,340.379 C397.46,353.019 391.561,365.259 384.531,376.819 C382.84,379.749 380.901,382.529 379.05,385.359 C378.151,386.789 377.102,388.12 376.13,389.509 C375.13,390.87 374.18,392.269 373.13,393.599 C371.021,396.239 369.021,398.959 366.771,401.499 L363.47,405.339 L360.021,409.059 L358.3,410.909 L352.93,416.279 L349.22,419.729 C347.991,420.879 346.76,422.029 345.47,423.12 L341.651,426.429 C340.38,427.529 339.05,428.569 337.75,429.639 C335.161,431.789 332.47,433.819 329.791,435.849 C319.021,443.929 307.68,451.169 296.17,458.069 C290.42,461.519 284.59,464.849 278.741,468.12 C272.871,471.37 266.97,474.549 261.05,477.699 C264.51,475.679 267.97,473.649 271.42,471.609 C291.061,460.029 310.491,448.049 328.34,433.969 C349.38,417.569 367.911,397.87 381.281,374.87 C388.01,363.429 393.63,351.339 398.26,338.879 C402.88,326.409 406.55,313.589 409.55,300.609 C412.561,287.63 414.901,274.489 416.781,261.269 L417.491,256.32 L418.021,251.369 L418.541,246.42 C418.701,244.769 418.93,243.13 418.97,241.469 L419.43,231.529 C419.55,229.88 419.46,228.219 419.46,226.57 L419.39,221.599 C419.061,208.359 417.68,195.13 414.741,182.209 C411.791,169.309 407.5,156.719 401.981,144.689 C396.481,132.649 389.701,121.179 381.84,110.489 C373.93,99.849 364.991,89.959 355.26,80.909 C347.96,74.149 340.22,67.869 332.111,62.069 C332.581,62.449 333.061,62.819 333.531,63.199 C343.401,71.269 352.371,80.449 360.39,90.38 C367.46,96.419 372.491,103.429 374.38,110.11 C377.291,114.819 380.021,119.649 382.521,124.599 C388.451,136.38 393.321,148.739 396.541,161.619 C398.13,168.049 399.311,174.549 400.25,181.07 C401.18,187.599 401.852,194.16 402.291,200.729 C403.17,213.859 403.161,227.039 402.38,240.17 C401.581,253.299 399.981,266.38 397.602,279.319 C395.25,292.259 392.102,305.049 388.191,317.609 C380.26,342.679 369.25,366.849 354.84,388.859 C340.5,410.909 322.871,430.799 302.64,447.519 C292.521,455.859 281.771,463.409 270.59,470.209 C267.75,471.849 264.981,473.579 262.09,475.12 L257.8,477.489 L253.451,479.749 C248.84,482.12 244.151,484.309 239.43,486.419 L239.352,486.469 L239.181,486.62 C268.451,478.629 297.021,467.829 323.17,452.659 C350.371,436.929 374.821,416.349 393.531,391.279 C412.321,366.269 425.14,337.12 432.13,306.71 C435.691,291.489 437.76,275.979 439.14,260.328 L440.18,248.509 L440.481,245.529 C440.571,244.589 440.661,243.639 440.72,242.689 C440.871,240.779 440.951,238.849 441,236.929 C441.191,229.209 440.84,221.429 440.071,213.709 C438.531,198.259 435.26,182.979 430.271,168.309 M473.155,312.801 C472.935,292.669 470.871,272.593 467.3,252.824 C463.708,233.057 458.583,213.574 451.714,194.744 C448.353,185.55 444.555,176.512 440.28,167.724 C444.89,182.285 447.958,197.436 449.372,212.826 C450.138,221.229 450.4,229.433 450.15,237.214 C450.052,239.684 449.946,241.584 449.804,243.386 C449.722,244.416 449.621,245.453 449.508,246.502 L449.189,249.418 L448.886,252.574 C449.648,257.8 450.189,263.045 450.561,268.287 C451.212,277.508 451.373,286.733 451.219,295.936 C450.921,314.348 449.265,332.666 446.946,350.865 C444.552,369.057 441.413,387.137 437.503,405.045 C435.54,413.996 433.378,422.904 430.915,431.729 C429.705,436.147 428.355,440.528 426.93,444.881 C425.469,449.218 423.915,453.544 421.875,457.643 C423.808,453.493 425.246,449.139 426.592,444.772 C427.901,440.39 429.134,435.987 430.228,431.547 C432.458,422.678 434.384,413.735 436.111,404.757 C439.548,386.798 442.21,368.698 444.123,350.534 C445.962,332.368 447.133,314.125 446.957,295.918 C446.898,289.554 446.674,283.197 446.254,276.863 C444.727,288.117 442.755,298.635 440.272,308.67 C437.935,318.195 435.08,327.458 431.763,336.383 L432.042,336.485 C430.497,340.539 428.776,344.505 426.93,348.4 C426.069,350.376 425.189,352.336 424.28,354.269 C417.571,368.701 409.075,382.574 399.03,395.496 C395.913,399.503 392.62,403.405 389.195,407.216 C383.517,414.49 377.642,421.6 371.642,428.592 C359.638,442.471 347.073,455.844 333.959,468.65 C327.397,475.047 320.692,481.297 313.781,487.314 C310.34,490.338 306.804,493.254 303.221,496.106 C299.616,498.925 295.938,501.682 291.979,503.985 C295.875,501.581 299.472,498.737 302.998,495.83 C306.5,492.89 309.953,489.89 313.308,486.784 C320.048,480.603 326.575,474.193 332.955,467.645 C345.702,454.537 357.879,440.882 369.466,426.764 C369.583,426.621 369.698,426.476 369.814,426.333 C368.363,427.6 366.895,428.854 365.408,430.088 C353.812,439.718 340.404,448.753 325.556,456.939 C300.642,470.58 272.625,480.951 239.914,488.641 L239.301,489.152 C239.038,489.371 238.773,489.588 238.515,489.807 C231.443,497.403 225.211,502.428 219.993,504.747 L219.509,504.961 C210.001,511.428 197.716,519.028 191.183,520.013 C190.795,520.181 190.408,520.355 190.019,520.529 C184.798,523.015 176.867,526.342 168.754,528.07 L165.273,529.071 L165.167,528.727 C163.925,528.914 162.699,529.051 161.498,529.138 C154.314,532.288 129.744,532.728 129.456,532.728 L129.455,532.728 C125.831,532.728 115.861,531.614 115.438,531.566 L114.912,531.507 L113.894,530.766 C108.536,526.821 104.394,521.862 101.57,516.017 C99.88,514.589 95.429,510.812 90.857,506.671 C87.761,503.874 85.175,500.644 83.172,497.072 C69.352,483.465 61.114,471.516 58.687,461.552 C57.896,458.304 57.385,454.824 57.165,451.197 C47.747,441.233 42.763,428.753 42.344,414.085 C32.758,396.893 29.964,380.677 34.042,365.878 C35.854,359.318 38.978,353.169 43.331,347.58 C42.296,344.853 41.377,342.089 40.533,339.195 C39.494,340.265 38.458,341.348 37.46,342.449 C35.291,344.849 33.201,347.329 31.251,349.919 C29.311,352.499 27.501,355.199 25.991,358.059 C24.521,360.919 23.23,363.969 23.021,367.259 C22.821,363.959 23.741,360.669 24.88,357.559 C26.061,354.449 27.561,351.459 29.221,348.579 C30.88,345.689 32.69,342.889 34.601,340.169 C36.095,338.055 37.631,336.006 39.263,333.974 C39.198,333.681 39.13,333.379 39.059,333.053 C38.711,331.483 37.912,327.817 37.639,326.202 C36.317,326.64 34.997,327.098 33.701,327.589 C31.101,328.579 28.531,329.659 26.011,330.87 C23.511,332.099 21.061,333.449 18.701,334.969 C16.371,336.509 14.141,338.229 12.111,340.219 C13.831,337.959 15.831,335.909 17.96,333.999 C20.121,332.12 22.42,330.389 24.791,328.769 C27.181,327.159 29.641,325.67 32.161,324.269 C33.769,323.385 35.379,322.558 37.033,321.756 C37.018,321.564 37.006,321.381 37.002,321.214 L36.981,321.216 C35.81,309.984 36.585,298.704 39.353,286.756 L37.052,283.609 C29.094,275.742 23.151,265.701 19.387,253.758 L19.072,253.107 C18.641,252.216 18.209,251.324 17.794,250.426 C11.039,235.738 6.47,220.716 4.212,205.779 C1.859,190.063 1.932,174.283 4.427,158.869 C6.809,143.9 11.502,128.814 18.377,114.036 C24.873,100.115 33.133,86.676 42.933,74.09 C47.667,68.003 52.834,62.031 58.288,56.345 C64.189,50.178 69.885,44.943 75.7,40.341 C81.896,35.409 88.613,30.885 95.769,26.781 C87.779,29.663 79.96,33.047 72.404,36.959 C66.678,39.907 61.136,43.217 55.81,46.851 C50.499,50.5 45.331,54.401 40.574,58.779 C35.803,63.135 31.306,67.812 27.227,72.858 C23.2,77.941 19.575,83.35 16.387,89.035 C19.273,83.196 22.626,77.577 26.419,72.243 C30.263,66.947 34.562,61.98 39.172,57.309 C43.77,52.617 48.813,48.38 54.031,44.38 C59.265,40.395 64.746,36.723 70.437,33.408 C81.806,26.749 93.867,21.259 106.353,16.93 C112.6,14.768 118.955,12.897 125.427,11.366 C128.28,10.685 131.167,10.102 134.091,9.602 C131.927,9.338 129.752,9.108 127.571,8.927 C117.405,8.096 107.118,8.066 96.869,8.706 C86.618,9.348 76.389,10.723 66.343,13.006 C56.319,15.317 46.407,18.514 37.29,23.481 C46.065,17.926 55.85,14.038 65.826,11.043 C75.828,8.071 86.103,5.998 96.477,4.665 C106.854,3.334 117.336,2.673 127.872,2.844 C133.141,2.937 138.422,3.243 143.724,3.882 C147.17,4.303 150.622,4.847 154.097,5.687 C154.888,5.556 155.681,5.427 156.468,5.31 C157.478,5.166 158.492,5.033 159.523,4.922 L159.752,4.898 C160.706,4.806 161.691,4.709 162.9,4.679 L163.263,4.679 L163.642,4.721 C164.218,4.791 164.995,4.823 165.747,4.854 L166.146,4.871 L174.917,5.009 C179.282,5.075 183.214,5.193 186.946,5.371 C193.642,5.681 200.267,6.206 206.722,6.914 C209.55,6.574 212.362,6.339 215.169,6.147 C222.081,5.706 228.959,5.589 235.826,5.662 C249.553,5.832 263.227,6.731 276.814,8.326 C290.397,9.913 303.908,12.162 317.179,15.42 C330.418,18.693 343.553,22.855 355.583,29.274 C343.255,23.466 330.029,19.996 316.745,17.402 C303.435,14.83 289.95,13.27 276.443,12.369 C263.188,11.478 249.889,11.26 236.659,11.729 C243.885,13.267 251.112,15.063 258.295,17.138 C272.942,21.366 287.382,26.702 301.53,33.083 C305.212,34.12 308.896,35.17 312.571,36.259 C321.562,38.915 330.519,41.753 339.375,44.893 C357.081,51.168 374.427,58.654 390.758,68.006 C407.074,77.342 422.37,88.589 435.506,102.014 C448.636,115.437 459.327,131.145 466.976,148.162 C458.71,131.428 447.522,116.241 434.079,103.456 C420.623,90.67 405.176,80.163 388.805,71.566 C372.417,62.955 355.106,56.217 337.442,50.67 C335.969,50.206 334.489,49.764 333.011,49.316 C337.313,51.822 341.583,54.417 345.81,57.125 C359.021,65.602 372.054,75.218 384.546,85.707 C385.527,86.516 386.505,87.356 387.482,88.197 C388.026,88.664 388.569,89.131 389.115,89.594 C390.651,90.908 392.152,92.237 393.653,93.577 L394.378,94.224 C395.633,95.343 396.884,96.459 398.15,97.633 L400.388,99.7 C400.588,99.89 400.774,100.059 400.959,100.228 C401.56,100.775 402.178,101.341 402.761,102.055 L403.829,103.238 C404.844,104.366 405.86,105.494 406.843,106.631 L410.735,111.358 L414.455,116.26 L417.987,121.29 C420.851,125.537 423.509,129.937 426.003,134.447 C426.952,135.885 427.888,137.328 428.799,138.787 C439.566,156.046 447.902,174.658 454.395,193.798 C460.875,212.955 465.563,232.666 468.701,252.586 C471.817,272.509 473.409,292.669 473.155,312.801 M42.931,228.99 C41.621,226.979 40.721,224.75 40.391,222.439 C39.63,217.82 40.801,213.099 42.771,208.869 C44.801,204.639 47.681,200.789 51.071,197.578 C52.781,195.979 54.611,194.529 56.561,193.359 C58.511,192.179 60.581,191.269 62.65,190.859 C64.73,190.459 66.69,190.509 68.471,191.349 C70.281,192.16 71.94,193.589 73.391,195.309 C76.301,198.779 78.371,203.199 80.121,207.689 C81.821,212.219 83.15,216.959 84.111,221.769 C84.621,224.179 85.001,226.609 85.261,229.059 C85.4,230.279 85.481,231.509 85.491,232.74 C85.52,233.969 85.46,235.209 85.111,236.41 C85.73,235.309 86.001,234.039 86.221,232.799 C86.431,231.549 86.54,230.289 86.611,229.019 C86.636,228.563 86.645,228.107 86.656,227.652 C86.68,226.637 86.671,225.623 86.64,224.607 L86.631,224.414 C86.598,223.423 86.547,222.431 86.48,221.439 C86.051,216.41 85.201,211.38 83.73,206.479 C83.011,204.029 82.141,201.589 81.051,199.229 C79.971,196.859 78.661,194.549 76.98,192.399 C75.301,190.259 73.181,188.269 70.46,186.969 C69.791,186.649 69.051,186.42 68.331,186.189 L67.21,185.959 C66.831,185.88 66.451,185.82 66.081,185.809 C65.331,185.759 64.571,185.719 63.851,185.799 C63.48,185.828 63.111,185.839 62.751,185.889 L61.69,186.089 C58.871,186.67 56.341,187.839 54.051,189.259 C51.771,190.709 49.71,192.399 47.851,194.279 C44.88,197.309 42.361,200.769 40.521,204.578 C41.9,197.57 43.801,190.67 46.121,183.929 C49.44,174.029 53.531,164.399 58.23,155.078 C62.96,145.789 68.111,136.699 74.051,128.169 C77.011,123.899 80.121,119.739 83.551,115.889 C85.261,113.979 87.051,112.139 88.96,110.489 C89.911,109.669 90.9,108.909 91.911,108.239 C92.92,107.589 93.98,107.029 94.98,106.769 C95.48,106.619 95.92,106.61 96.321,106.619 C96.69,106.679 96.991,106.809 97.271,107.009 C97.801,107.459 98.321,108.499 98.661,109.63 C99.361,111.919 99.69,114.479 99.92,117.029 C100.361,122.149 100.331,127.36 100.251,132.569 C100.051,142.999 99.251,153.439 98.451,163.869 C97.611,174.309 96.54,184.729 95.361,195.139 C95.127,197.32 94.887,199.5 94.645,201.681 C94.486,203.117 94.319,204.55 94.154,205.984 C94.069,206.724 93.982,207.464 93.896,208.205 C93.699,209.882 93.493,211.559 93.284,213.236 C93.225,213.703 93.164,214.171 93.105,214.637 C92.875,216.447 92.639,218.255 92.391,220.061 L92.39,220.063 C92.102,222.16 91.81,224.256 91.491,226.349 C95.781,205.799 98.581,184.969 100.931,164.109 C102.101,153.669 102.931,143.189 103.321,132.649 C103.48,127.38 103.5,122.089 103.081,116.759 C102.841,114.089 102.541,111.409 101.73,108.669 C101.511,107.989 101.261,107.289 100.9,106.589 C100.561,105.909 100.04,105.139 99.321,104.519 C98.571,103.919 97.63,103.529 96.701,103.409 C95.79,103.328 94.911,103.409 94.15,103.63 C92.601,104.049 91.331,104.769 90.15,105.539 C88.971,106.309 87.891,107.169 86.861,108.059 C84.811,109.849 82.94,111.789 81.17,113.779 C77.65,117.799 74.471,122.039 71.511,126.429 C65.63,135.219 60.431,144.429 55.98,153.989 C51.511,163.539 47.641,173.359 44.611,183.449 C43.13,188.509 41.871,193.619 40.88,198.789 C40.531,200.679 40.201,202.578 39.92,204.49 C39.811,205.179 39.721,205.869 39.63,206.57 C39.521,206.839 39.391,207.109 39.291,207.389 C38.361,209.849 37.65,212.42 37.411,215.07 C37.17,217.699 37.331,220.41 38.071,222.969 C38.811,225.519 40.121,227.889 41.861,229.809 C43.591,231.74 45.67,233.24 47.891,234.389 C45.971,232.789 44.23,231.009 42.931,228.99 M69.371,387.519 L69.431,387.599 L69.44,387.599 L69.371,387.519 M77.67,401.949 L77.69,401.939 L77.67,401.949 M112.811,361.689 C113.201,361.62 113.571,361.529 113.951,361.429 C114.69,361.229 115.431,360.999 116.17,360.779 C117.641,360.319 119.091,359.789 120.541,359.289 C123.431,358.229 126.301,357.129 129.13,355.969 C131.991,354.839 134.791,353.609 137.621,352.429 L146.021,348.739 L154.371,344.939 L162.691,341.089 C165.46,339.819 168.23,338.519 171.021,337.299 C172.411,336.669 173.81,336.079 175.23,335.519 C175.931,335.239 176.65,334.979 177.371,334.749 C178.091,334.529 178.831,334.289 179.601,334.37 C178.851,334.129 178.041,334.199 177.271,334.269 C176.5,334.359 175.73,334.499 174.97,334.649 C173.451,334.969 171.96,335.379 170.47,335.799 C167.511,336.689 164.601,337.669 161.72,338.749 C158.821,339.789 155.991,340.979 153.14,342.12 C150.31,343.309 147.5,344.539 144.691,345.769 C141.911,347.049 139.121,348.319 136.351,349.629 C133.601,350.979 130.821,352.269 128.091,353.669 C125.351,355.019 122.63,356.439 119.911,357.829 L115.831,359.949 C115.15,360.299 114.471,360.639 113.781,360.969 C113.44,361.139 113.091,361.309 112.741,361.459 C112.391,361.589 112.041,361.799 111.661,361.759 C112.041,361.889 112.44,361.749 112.811,361.689 M154.92,379.639 C150.821,380.509 146.71,381.339 142.571,381.979 C138.431,382.659 134.271,383.199 130.091,383.579 C128,383.749 125.911,383.899 123.811,383.949 C121.721,383.959 119.571,384.019 117.531,383.499 C118.061,383.539 118.571,383.589 119.091,383.549 C119.611,383.539 120.121,383.489 120.641,383.429 C121.67,383.359 122.71,383.199 123.73,383.059 C125.791,382.739 127.841,382.409 129.88,382.009 C133.971,381.259 138.031,380.389 142.091,379.499 C146.14,378.569 150.201,377.689 154.23,376.649 C158.261,375.659 162.281,374.639 166.271,373.509 C174.271,371.319 182.201,368.879 189.941,365.969 C193.8,364.489 197.621,362.899 201.25,360.959 C204.88,359.029 208.4,356.779 211,353.479 C210,355.319 208.64,356.989 207.081,358.419 C206.331,359.179 205.46,359.789 204.65,360.479 L202.071,362.329 C198.521,364.649 194.761,366.599 190.911,368.309 C187.081,370.059 183.13,371.519 179.17,372.929 C175.191,374.279 171.17,375.489 167.14,376.639 C163.081,377.729 159.011,378.739 154.92,379.639" fill="#0B0B09"/>
  </g>
</svg>
