<?xml version="1.0" standalone="no"?>
<!DOCTYPE svg PUBLIC "-//W3C//DTD SVG 20010904//EN"
 "http://www.w3.org/TR/2001/REC-SVG-20010904/DTD/svg10.dtd">
<svg version="1.0" xmlns="http://www.w3.org/2000/svg"
 width="500.000000pt" height="500.000000pt" viewBox="0 0 500.000000 500.000000"
 preserveAspectRatio="xMidYMid meet">
<metadata>
Created by potrace 1.14, written by Peter Selinger 2001-2017
</metadata>
<g transform="translate(0.000000,500.000000) scale(0.100000,-0.100000)"
fill="#000000" stroke="none">
<path d="M3110 4458 c0 -11 -6 -15 -19 -11 -21 5 -38 -24 -22 -40 5 -5 7 -15
5 -21 -8 -20 39 -80 73 -96 18 -8 33 -18 33 -21 0 -3 -23 -16 -51 -30 -58 -27
-117 -80 -152 -136 -30 -50 -50 -96 -37 -88 5 3 3 -10 -5 -29 -19 -45 -19 -59
0 -26 17 30 20 21 4 -14 -7 -14 -16 -23 -20 -20 -5 3 -6 -3 -2 -12 3 -10 2
-15 -3 -12 -5 4 -10 -6 -11 -20 l-1 -27 13 24 c17 33 49 38 41 7 -10 -42 -36
-96 -46 -96 -5 0 -7 6 -4 14 8 20 -26 14 -37 -6 -5 -8 -20 -48 -35 -89 -62
-173 -120 -244 -255 -315 -49 -26 -87 -49 -85 -52 2 -2 13 1 24 7 12 6 34 11
51 11 19 0 36 8 48 23 10 12 25 23 33 25 8 2 23 11 34 20 12 11 9 2 -8 -23
-15 -22 -41 -48 -57 -58 -16 -11 -29 -21 -29 -23 0 -6 80 35 113 58 15 11 27
16 27 11 0 -4 7 1 15 11 8 11 15 16 15 12 0 -5 6 -5 13 0 7 5 2 0 -12 -11 -62
-50 -86 -75 -66 -69 14 4 9 -4 -15 -25 -22 -21 -29 -31 -18 -31 8 0 34 18 57
40 22 22 41 36 41 30 0 -5 7 -7 15 -4 8 4 12 11 8 17 -3 5 -1 7 4 4 6 -4 16 0
23 8 7 8 17 12 22 9 5 -3 -18 -24 -51 -46 -66 -43 -84 -63 -25 -29 19 12 37
21 39 21 3 0 -22 -24 -54 -54 -47 -43 -63 -53 -84 -49 -15 3 -32 11 -38 19 -6
8 -18 14 -25 14 -22 0 -17 13 18 43 l33 29 -40 -26 c-46 -30 -58 -32 -75 -11
-7 8 -21 15 -31 15 -10 0 -22 8 -27 17 -9 15 -12 15 -24 2 -8 -8 -34 -23 -57
-34 -29 -13 -38 -21 -29 -27 12 -7 10 -8 -27 -8 -3 0 -15 -9 -27 -20 -52 -46
-59 -50 -70 -44 -7 5 -8 3 -3 -6 6 -10 4 -12 -8 -7 -9 3 -19 1 -23 -5 -5 -7
-2 -8 6 -3 9 5 11 4 6 -4 -4 -6 -12 -9 -17 -5 -6 3 -35 -11 -65 -32 -55 -38
-92 -74 -42 -42 29 19 78 31 78 19 0 -4 -5 -12 -12 -19 -15 -15 -8 -15 26 -2
l26 9 -26 -39 c-15 -22 -30 -37 -35 -34 -5 3 -6 -3 -2 -12 5 -13 3 -15 -7 -9
-9 5 -11 4 -6 -4 10 -15 -13 -43 -30 -37 -20 8 -31 -14 -38 -76 -3 -31 -9 -64
-13 -74 -6 -17 -5 -17 17 -1 29 20 44 22 34 5 -4 -7 5 -2 19 11 15 14 25 26
23 28 -7 7 -56 -9 -56 -18 0 -5 -4 -9 -10 -9 -5 0 -7 7 -4 15 4 8 13 15 20 15
8 0 17 7 20 15 8 20 34 19 34 -1 0 -9 17 -31 37 -50 39 -36 39 -44 0 -48 -21
-3 -25 0 -21 20 3 19 0 23 -13 20 -53 -10 -103 -37 -103 -55 0 -12 -2 -13 -8
-3 -11 17 -5 108 9 134 8 15 8 18 0 14 -21 -13 -11 11 30 69 22 31 38 60 35
62 -10 10 -105 -149 -99 -165 4 -10 2 -13 -5 -8 -6 3 -14 1 -18 -5 -4 -8 -3
-9 4 -5 17 10 16 7 -29 -80 -38 -74 -47 -63 -12 15 15 34 23 71 16 71 -1 0
-21 -35 -43 -77 -31 -59 -40 -70 -36 -45 3 18 17 49 30 69 24 35 26 53 4 53
-5 0 -8 -6 -5 -14 3 -8 -10 -38 -28 -68 -19 -29 -35 -48 -35 -42 0 21 23 79
39 98 10 13 11 17 2 11 -10 -6 -12 -2 -6 16 6 20 3 19 -21 -10 -16 -19 -46
-53 -66 -75 -21 -23 -38 -44 -38 -47 0 -7 -30 -21 -30 -14 0 2 6 10 13 17 7 7
26 37 42 66 16 29 37 58 47 63 10 6 16 14 14 18 -3 4 9 30 25 57 31 48 26 48
-28 0 -25 -21 -32 -46 -8 -26 8 7 15 10 15 7 0 -10 -123 -131 -135 -133 -15
-2 13 50 57 108 17 22 24 39 18 43 -5 3 -10 -1 -10 -9 0 -8 -10 -20 -22 -27
-13 -6 -51 -41 -85 -77 -65 -70 -80 -79 -38 -22 13 18 22 36 20 41 -3 4 4 10
15 14 11 3 33 22 49 42 16 20 34 32 40 28 6 -3 10 -2 9 4 -2 5 6 17 17 26 20
16 20 16 -4 9 -46 -13 -91 -34 -91 -44 0 -6 -15 -10 -32 -10 -31 1 -32 1 -14
15 27 21 125 57 158 59 14 0 24 4 21 9 -2 4 6 7 19 7 13 0 32 8 43 17 19 15
19 15 -10 8 -43 -11 -119 -23 -123 -20 -2 2 20 14 49 28 28 13 47 27 42 30
-14 9 -170 -10 -233 -28 -30 -9 -65 -19 -78 -22 -34 -8 -37 -23 -5 -24 20 -1
22 -3 8 -6 -81 -17 -170 -68 -273 -157 -54 -47 -58 -55 -19 -35 24 11 25 12
-34 -36 -39 -32 -111 -116 -105 -122 2 -3 19 5 35 17 38 27 41 10 3 -22 -40
-34 -73 -79 -65 -91 3 -5 1 -7 -5 -4 -20 13 -120 -235 -163 -403 -27 -110 -37
-333 -20 -462 33 -244 76 -441 124 -570 37 -96 97 -218 108 -218 10 0 11 -3
-30 170 -16 69 -32 157 -35 195 -4 39 -9 91 -12 118 -7 60 11 63 26 5 13 -54
57 -170 83 -223 31 -63 102 -168 132 -195 l28 -25 -7 30 c-4 17 -23 68 -42
115 -64 154 -74 184 -98 285 -36 150 -51 291 -38 351 6 27 13 74 16 104 13
123 104 358 152 393 14 10 51 22 82 27 139 20 281 67 341 112 19 15 26 16 33
6 6 -10 8 -8 8 4 0 25 30 11 31 -16 1 -12 4 -6 8 14 l7 35 14 -43 c7 -23 18
-41 24 -39 6 3 10 10 8 17 -2 8 3 10 13 6 9 -3 20 -6 25 -6 5 0 11 -12 13 -27
2 -16 3 -9 1 15 -3 31 0 42 10 42 8 0 16 -4 18 -8 6 -15 153 -80 206 -91 29
-6 89 -11 133 -11 44 0 90 -5 102 -11 20 -11 41 -35 42 -49 0 -3 4 -11 8 -18
11 -17 0 -32 -24 -32 -11 0 -17 -4 -14 -10 3 -5 19 -10 35 -10 33 0 56 -27 66
-79 7 -34 -7 -73 -38 -104 -19 -18 -24 -52 -10 -61 11 -7 25 5 41 37 14 26 44
36 55 19 6 -10 9 -102 4 -122 -2 -8 -7 -21 -11 -28 -5 -6 -5 -12 -1 -12 4 0
-2 -10 -13 -23 -23 -23 -30 -52 -20 -77 3 -8 7 -24 9 -35 2 -11 12 -21 24 -23
18 -3 30 12 69 85 l47 88 -5 92 c-4 88 -6 94 -42 142 -21 28 -42 48 -46 46 -4
-3 -6 3 -5 13 0 9 -5 16 -12 14 -8 -1 -11 2 -7 7 6 11 -43 91 -56 91 -5 0 -6
6 -3 14 6 16 181 44 194 30 12 -13 20 -186 23 -474 2 -240 2 -246 -21 -284
-13 -23 -21 -48 -18 -60 3 -11 -4 -47 -14 -80 -29 -86 -25 -141 7 -115 7 6 13
20 13 31 0 32 41 112 67 131 24 19 53 17 53 -3 0 -6 -6 -8 -12 -5 -7 4 -2 -3
12 -15 14 -12 19 -19 11 -15 -15 8 -9 -19 15 -69 8 -16 14 -48 14 -71 0 -66
10 -104 26 -98 8 3 14 18 13 37 0 27 -2 28 -10 11 -8 -18 -8 -18 -7 5 1 14 -1
31 -6 38 -4 7 -2 19 4 27 10 12 10 15 -1 15 -11 0 -11 2 1 10 8 5 11 10 5 10
-5 0 -10 15 -9 32 0 18 -5 47 -12 64 -11 26 -11 34 0 50 13 17 16 17 42 4 16
-8 34 -18 39 -23 6 -4 29 -21 53 -37 29 -21 45 -40 49 -60 3 -17 9 -30 14 -30
5 0 9 -9 9 -21 0 -11 5 -17 10 -14 16 10 11 52 -11 95 -26 51 -79 92 -147 116
-114 40 -122 65 -122 358 0 153 3 196 15 213 8 12 21 48 29 82 20 84 75 201
95 201 9 0 50 -30 91 -66 41 -36 89 -77 106 -92 22 -19 34 -40 39 -69 9 -55
25 -65 25 -16 0 55 7 61 75 59 69 -3 105 -18 105 -46 0 -11 9 -28 20 -37 11
-10 20 -22 20 -28 0 -5 -5 -3 -10 5 -5 8 -10 11 -10 5 0 -5 4 -16 9 -24 10
-15 15 -4 27 61 8 46 10 48 108 89 68 27 91 44 159 113 44 44 100 111 124 149
24 38 57 81 73 97 17 16 30 36 30 44 0 8 4 18 10 21 5 3 17 32 26 63 9 31 24
64 35 73 16 14 16 18 4 23 -8 3 -15 12 -15 21 0 8 -4 15 -10 15 -5 0 -10 4
-10 10 0 5 13 7 30 3 25 -5 29 -3 24 11 -3 9 -10 16 -16 16 -5 0 -6 -4 -3 -10
3 -5 1 -10 -4 -10 -15 0 -14 11 4 30 14 15 14 19 -2 31 -12 10 -15 10 -9 1 6
-9 1 -11 -19 -8 -20 4 -25 2 -21 -10 3 -7 0 -14 -5 -14 -6 0 -9 -9 -6 -20 3
-11 1 -20 -5 -20 -5 0 -7 -4 -4 -9 4 -5 -3 -7 -14 -4 -14 4 -20 0 -20 -11 0
-9 6 -16 13 -16 8 0 9 -3 1 -8 -6 -4 -14 -14 -17 -22 -4 -9 -6 -5 -4 9 1 13
-4 25 -11 27 -7 1 -8 0 -3 -2 6 -4 6 -14 -1 -29 -6 -14 -15 -22 -21 -18 -6 4
-7 1 -3 -6 5 -7 14 -10 21 -7 14 5 28 -18 18 -28 -11 -11 -24 -6 -17 5 5 9 -1
10 -21 5 -25 -6 -27 -5 -16 8 8 9 10 16 5 16 -5 0 0 7 10 15 23 17 14 20 -15
4 -11 -5 -16 -15 -13 -21 5 -7 2 -9 -9 -5 -9 3 -18 -1 -21 -9 -9 -23 -7 -27 9
-20 26 10 16 -2 -15 -18 -17 -8 -28 -11 -25 -7 8 14 -58 23 -69 10 -8 -9 -5
-10 12 -6 28 7 28 3 -5 -28 -21 -19 -24 -25 -11 -25 9 0 18 6 21 13 3 7 18 13
33 12 16 0 34 6 41 15 9 12 10 10 6 -12 -3 -15 -11 -29 -19 -32 -9 -3 -11 0
-7 11 4 11 2 14 -8 11 -8 -3 -14 -9 -14 -14 -1 -13 -24 -51 -25 -38 0 5 6 16
13 23 21 22 -45 1 -70 -22 -13 -11 -23 -15 -23 -9 0 6 4 13 9 17 6 3 17 19 25
36 15 29 14 30 -6 27 -12 -2 -22 -12 -24 -23 -2 -11 -10 -25 -19 -32 -10 -6
-14 -16 -10 -22 3 -6 0 -11 -8 -11 -26 0 -26 13 -2 32 41 32 28 41 -20 15 -51
-29 -61 -27 -13 3 l31 19 -26 6 c-32 8 -56 -3 -36 -17 11 -7 9 -9 -6 -7 -34 2
-46 -1 -40 -10 7 -13 -27 -23 -60 -17 -35 6 -45 16 -17 16 12 0 22 5 22 10 0
6 -11 10 -25 10 -14 0 -25 5 -25 10 0 6 11 10 25 10 14 0 25 -5 25 -11 0 -6 9
-8 23 -4 19 5 20 4 5 -5 -20 -12 -24 -30 -8 -30 6 0 19 9 30 20 18 18 18 20 2
30 -14 9 -14 10 6 5 12 -4 32 -3 43 0 17 6 19 9 8 17 -11 8 -10 8 4 4 10 -3
28 -6 40 -6 16 0 18 -3 9 -9 -11 -7 -11 -9 0 -13 8 -3 23 2 35 11 20 17 20 17
-12 18 -49 1 -151 73 -104 73 5 0 8 -4 5 -8 -2 -4 19 -20 49 -34 32 -16 52
-21 49 -13 -3 7 -13 15 -22 17 -18 5 -28 48 -11 48 6 0 8 4 5 8 -3 5 -53 12
-112 15 -59 4 -109 9 -111 11 -3 2 10 37 27 77 50 117 59 176 53 366 -2 92
-11 207 -19 256 -8 48 -12 92 -8 98 4 6 0 15 -7 20 -10 6 -11 11 -3 19 32 32
-64 334 -130 409 l-21 24 31 -22 c60 -44 131 -2 121 72 -3 21 -8 41 -11 44 -3
4 -43 -10 -88 -30 -89 -40 -128 -46 -148 -22 -16 19 -3 55 20 55 10 0 22 5 25
10 9 14 27 1 19 -13 -4 -7 -1 -6 7 2 11 10 11 15 2 18 -7 3 -13 13 -13 24 0
10 -4 19 -8 19 -5 0 -17 7 -28 16 -10 8 -14 13 -9 10 6 -2 29 11 50 30 27 24
31 30 12 18 -22 -13 -31 -14 -40 -5 -9 10 -9 11 4 6 9 -3 23 3 33 14 10 11 23
18 28 15 5 -3 15 0 23 6 18 15 77 -3 96 -28 11 -14 11 -15 -1 -4 -8 6 -18 12
-24 12 -5 0 -1 -6 9 -14 11 -8 24 -12 28 -9 5 3 17 -4 28 -16 11 -12 16 -21
12 -21 -4 0 -1 -5 7 -10 13 -8 12 -10 -2 -10 -10 0 -18 3 -18 8 0 11 -58 34
-69 28 -5 -3 -8 2 -7 12 1 13 -6 17 -27 15 -16 -1 -35 -7 -43 -14 -13 -10 -12
-14 2 -30 10 -11 22 -19 28 -19 6 0 5 5 -2 12 -7 7 -12 17 -12 23 0 5 5 3 10
-5 10 -17 39 -20 58 -6 8 5 12 4 12 -6 0 -22 -12 -29 -28 -16 -11 10 -17 9
-26 -3 -13 -19 -53 -9 -62 16 -3 8 -10 13 -15 10 -14 -9 34 -56 56 -54 11 1
28 -1 37 -5 9 -4 23 -4 30 0 15 10 28 12 91 17 26 2 50 6 52 9 3 3 -14 25 -37
50 -48 49 -108 135 -108 154 0 7 -8 10 -18 7 -13 -3 -21 5 -32 31 l-14 36 -20
-22 -20 -22 -7 30 c-12 61 -39 75 -39 22 0 -38 -19 -78 -20 -43 -1 25 -50 88
-50 63z m207 -324 c-9 -9 -28 6 -21 18 4 6 10 6 17 -1 6 -6 8 -13 4 -17z m-22
-94 c-3 -5 -14 -10 -23 -10 -15 0 -15 2 -2 10 20 13 33 13 25 0z m-299 -116
c-3 -9 -9 -43 -12 -76 -6 -61 -26 -122 -43 -133 -6 -3 -6 7 0 27 13 47 11 57
-7 28 l-15 -25 7 25 c3 14 15 44 25 67 11 23 19 44 19 47 0 12 20 56 26 56 3
0 3 -7 0 -16z m32 -44 c-2 -16 -1 -31 3 -32 4 -2 3 -27 -2 -57 -4 -30 -6 -65
-3 -77 3 -12 0 -25 -6 -29 -9 -5 -10 -1 -5 15 4 13 3 20 -2 17 -6 -4 -8 17 -6
51 5 84 13 142 20 142 3 0 3 -13 1 -30z m54 -94 c-6 -20 -6 -20 -13 4 -12 43
-10 56 5 35 7 -10 11 -28 8 -39z m45 -53 c-2 -16 -4 -3 -4 27 0 30 2 43 4 28
2 -16 2 -40 0 -55z m-140 5 c-3 -7 -5 -2 -5 12 0 14 2 19 5 13 2 -7 2 -19 0
-25z m96 -20 c-3 -24 -9 -58 -14 -77 -5 -23 -5 -39 3 -48 7 -9 7 -13 -1 -13
-6 0 -11 -7 -11 -15 0 -8 -5 -15 -11 -15 -5 0 -7 5 -3 11 4 6 8 39 11 73 3 54
19 126 28 126 2 0 1 -19 -2 -42z m64 -15 c-3 -10 -5 -2 -5 17 0 19 2 27 5 18
2 -10 2 -26 0 -35z m-30 -25 c-3 -8 -6 -5 -6 6 -1 11 2 17 5 13 3 -3 4 -12 1
-19z m40 -105 c-2 -21 -4 -4 -4 37 0 41 2 58 4 38 2 -21 2 -55 0 -75z m-36 46
c-5 -13 -10 -19 -10 -12 -1 15 10 45 15 40 3 -2 0 -15 -5 -28z m-25 -66 c-8
-15 -15 -25 -16 -21 0 12 23 58 27 54 3 -2 -2 -17 -11 -33z m19 -100 c-15 -27
-16 -27 -9 -3 3 14 9 43 12 65 l7 40 3 -37 c2 -21 -4 -49 -13 -65z m-42 52
c-3 -9 -8 -14 -10 -11 -3 3 -2 9 2 15 9 16 15 13 8 -4z m-10 -58 c3 -8 -1 -14
-8 -14 -7 0 -11 6 -8 14 3 7 6 13 8 13 2 0 5 -6 8 -13z m-13 -42 c-7 -9 -15
-13 -19 -10 -3 3 1 10 9 15 21 14 24 12 10 -5z m70 11 c0 -2 -7 -9 -15 -16
-12 -10 -15 -10 -15 4 0 9 7 16 15 16 8 0 15 -2 15 -4z m47 -18 c-3 -8 -6 -5
-6 6 -1 11 2 17 5 13 3 -3 4 -12 1 -19z m-547 -3 c0 -2 -10 -10 -22 -16 -21
-11 -22 -11 -9 4 13 16 31 23 31 12z m272 -7 c-21 -21 -13 -32 11 -12 l22 19
-19 -22 c-10 -13 -23 -20 -27 -17 -5 3 -12 -1 -15 -10 -3 -8 -12 -17 -20 -20
-16 -6 20 52 41 66 16 12 20 9 7 -4z m74 -33 c-9 -14 -21 -37 -26 -53 -9 -24
-5 -22 29 16 21 23 43 42 49 42 5 0 15 7 22 15 7 9 15 13 17 11 4 -4 -41 -67
-87 -123 -6 -7 -10 -20 -10 -29 0 -13 3 -14 15 -4 8 7 15 18 15 24 0 7 7 21
16 32 15 18 15 17 10 -16 -6 -32 -5 -33 8 -15 19 25 20 17 2 -26 -8 -19 -13
-37 -13 -41 3 -9 -44 -58 -55 -58 -4 0 -8 12 -8 27 l0 27 -16 -22 c-8 -12 -19
-22 -24 -22 -15 0 -7 44 12 64 10 11 18 23 18 28 0 10 -20 11 -20 1 0 -5 -12
-21 -26 -37 -25 -28 -73 -40 -90 -23 -4 4 13 32 36 63 25 33 36 55 27 51 -10
-4 -17 -2 -17 4 0 5 10 14 23 19 12 5 18 9 13 9 -4 1 2 10 15 20 15 12 26 15
30 9 4 -6 15 1 25 15 24 32 32 26 10 -8z m198 -61 c-17 -58 -43 -109 -51 -100
-2 2 1 32 8 67 8 39 15 56 18 45 5 -13 10 -9 20 19 20 57 24 34 5 -31z m-70 1
c-1 -5 -5 -23 -9 -40 -6 -29 -6 -29 10 -10 9 12 7 2 -7 -27 -21 -45 -48 -71
-48 -45 2 32 26 117 33 111 4 -4 7 8 8 27 0 27 2 30 8 14 5 -11 7 -24 5 -30z
m-269 -42 c-14 -12 -25 -27 -25 -32 0 -13 -40 -24 -71 -19 -28 4 -32 30 -5 34
10 1 23 7 29 13 14 14 30 14 22 1 -4 -6 5 -5 19 2 15 6 24 13 21 16 -3 3 0 11
7 19 9 11 13 11 20 1 5 -9 -1 -21 -17 -35z m-515 -201 c0 -26 -3 -28 -40 -28
-32 0 -37 2 -28 13 8 10 43 32 66 42 1 1 2 -12 2 -27z m-20 -42 c0 -5 -2 -10
-4 -10 -3 0 -8 5 -11 10 -3 6 -1 10 4 10 6 0 11 -4 11 -10z m-180 -101 c0 -21
-4 -39 -8 -39 -5 0 -8 20 -8 44 0 25 3 43 8 40 4 -3 8 -23 8 -45z m26 6 c1 -8
-2 -15 -7 -15 -5 0 -9 10 -9 22 0 23 12 17 16 -7z m-463 -41 c-24 -14 -43 -32
-43 -40 0 -8 -8 -14 -18 -14 -10 0 -24 -6 -32 -12 -7 -7 2 6 20 30 19 24 47
46 64 51 51 15 53 11 9 -15z m147 -176 c-27 -58 -50 -111 -50 -118 0 -7 -2
-11 -5 -9 -10 10 21 126 38 143 9 10 17 21 17 26 0 16 44 83 47 73 2 -6 -19
-58 -47 -115z m-153 65 c-36 -50 -76 -134 -78 -162 0 -11 -2 -12 -6 -3 -7 19
33 109 74 165 19 26 37 47 40 47 2 0 -11 -21 -30 -47z m430 4 c0 -7 -9 -13
-19 -13 -18 0 -18 1 -2 13 10 7 18 13 19 13 1 0 2 -6 2 -13z m199 -28 c22 -11
29 -17 17 -14 -13 4 -23 2 -23 -3 0 -6 -7 -12 -15 -16 -13 -5 -14 -2 -4 15 10
20 9 21 -24 16 -35 -5 -41 3 -23 31 6 9 11 10 21 2 7 -6 30 -20 51 -31z m-296
11 c0 -5 -5 -10 -11 -10 -5 0 -7 5 -4 10 3 6 8 10 11 10 2 0 4 -4 4 -10z m188
-12 c-3 -7 -14 -14 -26 -14 -18 -1 -20 2 -11 12 14 17 42 18 37 2z m-516 -27
c-9 -16 -18 -28 -21 -26 -4 5 27 55 34 55 2 0 -4 -13 -13 -29z m179 -24 c-10
-9 -11 -8 -5 6 3 10 9 15 12 12 3 -3 0 -11 -7 -18z m489 9 c-25 -15 -45 -12
-35 5 4 5 18 9 33 9 l27 -1 -25 -13z m1025 -2 c14 -6 13 -9 -7 -23 -23 -16
-30 -17 -25 -3 1 4 5 6 9 5 4 -2 5 4 2 12 -7 17 -3 18 21 9z m-1065 -19 c0 -2
-6 -5 -13 -8 -8 -3 -14 1 -14 8 0 7 6 11 14 8 7 -3 13 -6 13 -8z m1115 5 c-3
-5 -11 -10 -16 -10 -6 0 -7 5 -4 10 3 6 11 10 16 10 6 0 7 -4 4 -10z m120 -10
c3 -5 1 -10 -4 -10 -6 0 -11 5 -11 10 0 6 2 10 4 10 3 0 8 -4 11 -10z m-1837
-30 c-5 -17 -14 -33 -19 -36 -8 -5 4 37 17 57 11 19 12 8 2 -21z m133 7 c-10
-9 -11 -8 -5 6 3 10 9 15 12 12 3 -3 0 -11 -7 -18z m81 14 c7 10 8 8 3 -6 -4
-11 -11 -36 -15 -55 -7 -31 -8 -28 -7 20 0 30 2 49 5 41 4 -11 6 -11 14 0z
m315 3 c-3 -3 -12 -4 -19 -1 -8 3 -5 6 6 6 11 1 17 -2 13 -5z m1161 -25 c-18
-12 -40 -11 -33 1 4 6 11 7 17 4 8 -5 9 -1 4 11 -5 15 -4 16 9 5 13 -11 13
-15 3 -21z m-1258 3 c0 -5 -12 -14 -27 -21 l-28 -12 25 21 c29 22 30 23 30 12z
m1344 -7 c23 -17 22 -18 -21 -33 -39 -13 -44 -6 -7 9 26 9 26 10 8 24 -10 8
-14 14 -9 14 6 0 19 -6 29 -14z m-1224 -15 c-33 -26 -49 -26 -19 0 13 10 29
19 34 19 6 1 -1 -8 -15 -19z m1100 -10 c0 -12 -28 -20 -45 -14 -10 4 -15 0
-15 -10 0 -9 6 -16 13 -15 29 4 42 -2 22 -11 -14 -5 -26 -2 -39 9 -18 15 -19
15 -13 -2 4 -11 3 -16 -3 -12 -6 3 -10 14 -10 23 -1 12 -5 10 -15 -8 -8 -14
-14 -20 -14 -15 0 17 23 50 37 51 37 3 43 5 38 13 -3 4 6 6 19 3 14 -2 25 -8
25 -12z m455 1 c3 -5 1 -12 -5 -16 -5 -3 -10 1 -10 9 0 18 6 21 15 7z m-27
-57 c0 -17 -4 -22 -11 -15 -5 5 -7 17 -4 25 9 23 15 19 15 -10z m52 22 c0 -3
-4 -8 -10 -11 -5 -3 -10 -1 -10 4 0 6 5 11 10 11 6 0 10 -2 10 -4z m-2019 -37
c-5 -13 -10 -19 -10 -12 -1 15 10 45 15 40 3 -2 0 -15 -5 -28z m2056 4 c-4 -3
-2 -12 5 -20 8 -11 7 -12 -6 -7 -9 3 -16 9 -16 13 0 9 11 21 18 21 3 0 2 -3
-1 -7z m-2170 -50 c-3 -10 -5 -4 -5 12 0 17 2 24 5 18 2 -7 2 -21 0 -30z
m1562 17 c-29 -16 -59 -21 -59 -11 0 6 9 11 21 11 11 0 18 4 15 9 -4 5 3 7 15
4 16 -5 18 -8 8 -13z m399 0 c-7 -11 -17 -20 -22 -20 -5 0 -1 9 9 20 10 11 20
20 22 20 2 0 -2 -9 -9 -20z m73 -3 c-10 -9 -11 -8 -5 6 3 10 9 15 12 12 3 -3
0 -11 -7 -18z m-263 1 c-2 -8 6 -12 21 -10 23 4 23 3 7 -14 -13 -13 -14 -19
-5 -25 9 -5 7 -9 -7 -12 -10 -2 -8 -2 6 0 33 5 37 5 98 -2 41 -4 57 -2 69 10
8 9 18 13 22 9 3 -4 0 -9 -6 -11 -7 -3 -13 -11 -13 -19 0 -8 -4 -14 -10 -14
-5 0 -10 -5 -10 -12 0 -9 3 -9 12 0 13 13 38 -1 38 -21 0 -8 -3 -8 -11 0 -12
12 -49 6 -49 -9 0 -5 9 -6 20 -3 11 4 20 2 20 -4 0 -6 -4 -11 -8 -11 -5 0 -23
-15 -42 -32 -30 -29 -33 -31 -28 -10 4 12 2 22 -3 22 -5 0 -12 -12 -15 -27 -4
-16 -12 -31 -18 -35 -16 -11 -36 -9 -36 3 0 6 7 8 16 5 8 -3 12 -2 9 3 -3 5
-1 12 5 16 5 3 10 11 10 17 0 6 -9 3 -21 -8 -20 -18 -21 -18 -34 -1 -10 13
-14 15 -17 5 -3 -7 2 -18 10 -24 10 -8 13 -17 7 -30 -5 -10 -9 -22 -9 -26 -1
-3 -4 -9 -8 -12 -5 -3 -6 -3 -3 1 3 3 -1 13 -8 21 -9 13 -9 14 0 8 9 -5 11 -2
6 10 -6 15 -9 14 -27 -8 -12 -14 -34 -28 -51 -32 -19 -4 -25 -3 -17 2 8 5 13
13 11 18 -1 5 8 14 20 20 36 18 44 31 27 37 -9 4 -16 2 -16 -3 0 -6 -16 -18
-35 -27 -28 -13 -38 -14 -48 -4 -9 10 -9 11 4 6 10 -4 20 -2 24 4 4 7 -12 11
-47 10 -39 0 -48 -3 -33 -9 18 -8 18 -9 2 -9 -11 -1 -21 8 -24 19 -3 11 -10
20 -15 20 -5 0 -7 -4 -4 -9 7 -10 -24 -25 -33 -16 -3 3 0 15 7 25 13 22 12 23
-12 14 -9 -3 -13 -10 -10 -15 3 -5 -4 -9 -15 -9 -12 0 -21 -6 -21 -12 0 -9 -4
-8 -10 2 -5 8 -7 23 -4 33 3 10 -1 26 -10 36 -13 14 -14 20 -3 35 11 15 31 18
124 19 61 1 110 4 107 6 -6 7 28 41 40 41 6 0 3 -7 -6 -14 -17 -12 -17 -14 2
-36 11 -13 23 -20 28 -16 4 4 -2 14 -13 22 -19 14 -19 16 -2 25 9 6 15 14 12
20 -3 5 0 6 8 3 8 -3 18 0 23 7 4 7 3 10 -2 7 -5 -3 -15 0 -21 8 -10 10 -10
15 5 23 22 13 22 13 20 -1z m317 2 c3 -5 1 -10 -4 -10 -6 0 -11 5 -11 10 0 6
2 10 4 10 3 0 8 -4 11 -10z m-500 -30 c3 -5 -2 -10 -12 -11 -16 0 -16 -1 2 -9
19 -8 19 -9 -2 -9 -13 -1 -23 5 -23 12 0 25 23 36 35 17z m54 -9 l23 -18 -23
1 c-23 1 -39 12 -39 29 0 12 13 8 39 -12z m249 -1 c-7 -11 -17 -20 -22 -20 -5
0 -1 9 9 20 10 11 20 20 22 20 2 0 -2 -9 -9 -20z m35 -5 c-3 -9 -8 -14 -10
-11 -3 3 -2 9 2 15 9 16 15 13 8 -4z m167 5 c0 -5 -5 -10 -11 -10 -5 0 -7 5
-4 10 3 6 8 10 11 10 2 0 4 -4 4 -10z m-2710 -29 c-14 -26 -29 -35 -26 -15 1
8 9 20 17 25 20 12 21 11 9 -10z m2671 12 c-11 -4 -11 -7 0 -13 10 -7 10 -12
1 -23 -7 -7 -10 -16 -7 -19 3 -3 -7 -5 -21 -4 -15 1 -32 9 -38 18 -14 22 2 38
17 17 8 -10 19 -14 31 -9 18 6 18 7 -5 14 -23 7 -23 8 -4 16 11 5 25 9 30 9 6
-1 4 -3 -4 -6z m-637 -57 c-21 -15 -30 -14 -19 3 3 6 14 11 23 11 13 0 13 -2
-4 -14z m-2050 -8 c-4 -7 -16 -24 -28 -37 -17 -19 -17 -23 -4 -18 14 5 15 1 8
-22 -4 -16 -14 -39 -21 -52 -7 -13 -12 -28 -10 -34 1 -5 -1 -7 -5 -2 -4 4 -21
-5 -38 -20 l-30 -28 17 27 c9 15 17 34 17 42 0 8 11 28 25 44 26 31 33 48 14
37 -6 -4 -5 2 3 14 7 12 16 21 19 21 4 0 9 9 12 20 3 11 10 20 17 20 6 0 8 -6
4 -12z m2126 -132 c0 -2 -7 -7 -16 -10 -8 -3 -12 -2 -9 4 6 10 25 14 25 6z
m157 -27 c2 -16 -1 -19 -9 -11 -5 5 -7 15 -4 21 10 15 12 14 13 -10z m-2361
-76 c-15 -49 -45 -233 -47 -294 l-1 -34 -9 40 c-6 22 -7 51 -4 64 6 22 5 23
-11 10 -16 -12 -17 -12 -9 1 5 8 10 28 11 45 1 16 3 34 3 38 1 5 5 6 9 3 10
-6 10 40 0 49 -10 10 20 86 44 112 29 31 33 23 14 -34z m2464 47 c0 -5 -5 -10
-11 -10 -5 0 -7 5 -4 10 3 6 8 10 11 10 2 0 4 -4 4 -10z m-75 -10 c-3 -5 -12
-10 -18 -10 -7 0 -6 4 3 10 19 12 23 12 15 0z m-2360 -177 c5 -21 4 -33 -3
-33 -15 0 -33 86 -25 118 7 26 8 25 14 -13 4 -22 10 -55 14 -72z m2372 45 c-3
-8 -6 -5 -6 6 -1 11 2 17 5 13 3 -3 4 -12 1 -19z m-2420 -140 c-3 -7 -5 -2 -5
12 0 14 2 19 5 13 2 -7 2 -19 0 -25z m20 -40 c-3 -8 -6 -5 -6 6 -1 11 2 17 5
13 3 -3 4 -12 1 -19z m-1 -108 c-2 -8 -4 -5 -5 7 0 12 -5 25 -11 28 -5 3 -10
25 -9 48 l1 42 14 -55 c8 -30 12 -62 10 -70z m-19 -92 c-3 -8 -6 -5 -6 6 -1
11 2 17 5 13 3 -3 4 -12 1 -19z m1578 -8 c-3 -5 -11 -10 -16 -10 -6 0 -7 5 -4
10 3 6 11 10 16 10 6 0 7 -4 4 -10z m-1571 -75 c5 -22 4 -26 -4 -15 -5 8 -10
24 -10 34 0 26 6 18 14 -19z m11 -85 c8 -16 15 -32 15 -37 0 -10 -25 27 -33
50 -10 27 1 20 18 -13z m1760 -50 c3 -5 1 -10 -4 -10 -6 0 -11 5 -11 10 0 6 2
10 4 10 3 0 8 -4 11 -10z m-1740 -44 c9 -21 11 -35 6 -31 -6 3 -11 2 -11 -4 0
-5 5 -13 10 -16 6 -3 10 -14 10 -23 -1 -15 -2 -15 -15 2 -8 11 -14 33 -13 50
1 17 -2 40 -7 51 -4 11 -5 18 -2 14 4 -3 13 -22 22 -43z m1692 21 c-12 -13
-24 -22 -26 -20 -6 4 30 43 40 43 5 0 -2 -10 -14 -23z"/>
<path d="M2867 3232 c-19 -20 -23 -37 -7 -27 10 6 33 45 27 45 -2 0 -11 -8
-20 -18z"/>
<path d="M3506 2421 c-3 -5 1 -11 9 -14 9 -4 12 -1 8 9 -6 16 -10 17 -17 5z"/>
<path d="M3161 2389 c-23 -9 -23 -10 -6 -29 19 -21 45 -27 45 -10 0 6 -7 13
-16 17 -12 4 -13 7 -3 14 21 12 7 18 -20 8z"/>
<path d="M3438 2373 c7 -3 16 -2 19 1 4 3 -2 6 -13 5 -11 0 -14 -3 -6 -6z"/>
<path d="M3445 2350 c3 -5 8 -10 11 -10 2 0 4 5 4 10 0 6 -5 10 -11 10 -5 0
-7 -4 -4 -10z"/>
<path d="M3160 2310 c0 -5 7 -7 15 -4 8 4 15 8 15 10 0 2 -7 4 -15 4 -8 0 -15
-4 -15 -10z"/>
<path d="M3410 2250 c-9 -6 -10 -10 -3 -10 6 0 15 5 18 10 8 12 4 12 -15 0z"/>
<path d="M3494 4138 c-4 -7 -4 -10 1 -6 4 4 15 2 24 -5 14 -11 14 -10 2 6 -16
20 -18 21 -27 5z"/>
<path d="M3248 4113 c-28 -4 -36 -17 -19 -28 11 -6 61 15 61 27 0 4 -3 7 -7 7
-5 -1 -20 -4 -35 -6z"/>
<path d="M3320 4100 c-21 -7 -21 -8 -5 -9 11 0 27 4 35 9 18 11 5 11 -30 0z"/>
<path d="M3468 4103 c12 -2 30 -2 40 0 9 3 -1 5 -23 4 -22 0 -30 -2 -17 -4z"/>
<path d="M2926 3874 c-4 -14 -5 -28 -3 -31 3 -2 8 8 11 23 4 14 5 28 3 31 -3
2 -8 -8 -11 -23z"/>
<path d="M2530 3309 c0 -5 5 -7 10 -4 6 3 10 8 10 11 0 2 -4 4 -10 4 -5 0 -10
-5 -10 -11z"/>
<path d="M2027 3006 c-46 -48 -112 -136 -102 -136 10 0 43 40 61 73 8 16 20
25 26 21 7 -4 8 -3 4 4 -4 7 -3 12 2 12 5 0 22 16 36 35 37 48 23 44 -27 -9z"/>
<path d="M1980 3010 c-8 -5 -12 -12 -9 -15 4 -3 12 1 19 10 14 17 11 19 -10 5z"/>
<path d="M1905 2920 c-3 -6 1 -7 9 -4 18 7 21 14 7 14 -6 0 -13 -4 -16 -10z"/>
<path d="M4003 2836 c1 -6 -4 -10 -11 -8 -8 1 -11 -2 -7 -7 3 -6 12 -8 20 -4
8 3 15 0 15 -6 0 -6 8 -11 18 -11 20 0 52 -29 52 -47 0 -6 7 -13 15 -17 8 -3
15 -4 15 -1 0 8 -63 105 -69 106 -29 7 -50 4 -48 -5z"/>
<path d="M4046 2778 c5 -8 2 -9 -10 -5 -11 5 -16 3 -14 -5 7 -20 38 -18 38 3
0 10 -5 19 -11 19 -5 0 -7 -5 -3 -12z"/>
<path d="M3876 2767 c3 -10 9 -15 12 -12 3 3 0 11 -7 18 -10 9 -11 8 -5 -6z"/>
<path d="M3817 2763 c-3 -5 5 -8 18 -8 13 0 21 3 18 8 -2 4 -10 7 -18 7 -8 0
-16 -3 -18 -7z"/>
<path d="M3806 2731 c-4 -5 3 -7 14 -4 23 6 26 13 6 13 -8 0 -17 -4 -20 -9z"/>
<path d="M4100 2719 c0 -5 10 -9 22 -9 12 0 18 3 14 7 -10 11 -36 12 -36 2z"/>
<path d="M3740 2709 c-12 -8 -10 -9 9 -4 16 5 21 4 17 -4 -4 -6 -2 -11 4 -11
13 0 8 22 -6 27 -5 1 -16 -2 -24 -8z"/>
<path d="M3680 2690 c-9 -6 -10 -10 -3 -10 6 0 15 5 18 10 8 12 4 12 -15 0z"/>
<path d="M3713 2674 c0 -7 7 -14 14 -14 12 0 11 -3 -2 -16 -9 -9 -13 -19 -10
-23 4 -3 13 3 20 14 8 11 20 26 26 34 10 11 10 13 -2 9 -8 -3 -21 -2 -30 3
-11 5 -16 3 -16 -7z"/>
<path d="M3588 2673 c7 -3 16 -2 19 1 4 3 -2 6 -13 5 -11 0 -14 -3 -6 -6z"/>
<path d="M3560 2660 c0 -5 5 -10 11 -10 5 0 7 5 4 10 -3 6 -8 10 -11 10 -2 0
-4 -4 -4 -10z"/>
<path d="M3620 2661 c0 -5 14 -11 31 -15 43 -8 51 -8 44 4 -4 6 -10 8 -15 5
-5 -3 -20 -1 -34 5 -14 5 -26 6 -26 1z"/>
<path d="M3600 2630 c20 -13 53 -13 45 0 -3 6 -18 10 -33 10 -21 0 -24 -2 -12
-10z"/>
</g>
</svg>
